<?xml version="1.0" encoding="UTF-8" standalone="no"?><!DOCTYPE svg PUBLIC "-//W3C//DTD SVG 1.1//EN" "http://www.w3.org/Graphics/SVG/1.1/DTD/svg11.dtd"><svg width="100%" height="100%" viewBox="0 0 846 506" version="1.1" xmlns="http://www.w3.org/2000/svg" xmlns:xlink="http://www.w3.org/1999/xlink" xml:space="preserve" style="fill-rule:evenodd;clip-rule:evenodd;stroke-linecap:round;stroke-linejoin:round;stroke-miterlimit:1.41421;"><path id="Container" d="M844.746,159.269c0,-3.806 -3.09,-6.896 -6.896,-6.896l-81.044,0c-3.806,0 -6.896,3.09 -6.896,6.896l0,58.275c0,3.806 3.09,6.896 6.896,6.896l81.044,0c3.806,0 6.896,-3.09 6.896,-6.896l0,-58.275Z" style="fill:#fff;stroke-width:0.5px;stroke:#000;"/><path id="App" d="M817.888,168.03c-0.021,-2.948 -2.431,-5.324 -5.379,-5.304l-53.31,0.377c-2.948,0.021 -5.325,2.431 -5.304,5.379l0.288,40.753c0.021,2.948 2.431,5.324 5.379,5.303l53.31,-0.376c2.948,-0.021 5.324,-2.431 5.304,-5.379l-0.288,-40.753Z" style="fill:none;stroke-width:1px;stroke:#000;"/><path id="Sidecar" d="M833.768,166.447c0,-0.601 -0.488,-1.09 -1.09,-1.09l-8.556,0c-0.602,0 -1.09,0.489 -1.09,1.09l0,46.166c0,0.601 0.488,1.09 1.09,1.09l8.556,0c0.602,0 1.09,-0.489 1.09,-1.09l0,-46.166Z" style="fill:#4b252d;stroke-width:0.5px;stroke:#000;"/><text id="App-Name" x="759.36px" y="193.265px" style="font-family:'Helvetica';font-size:16px;fill:#000;">Ratings</text><g id="Python"><path id="path46" d="M781.028,136.104c0,-3.067 -0.874,-4.642 -2.623,-4.728c-0.696,-0.033 -1.376,0.078 -2.037,0.335c-0.527,0.188 -0.883,0.375 -1.069,0.564l0,7.321c1.119,0.702 2.112,1.028 2.978,0.977c1.834,-0.121 2.751,-1.61 2.751,-4.469ZM783.186,136.231c0,1.558 -0.366,2.852 -1.1,3.88c-0.82,1.164 -1.955,1.763 -3.406,1.796c-1.094,0.035 -2.221,-0.308 -3.381,-1.026l0,6.653l-1.877,-0.669l0,-14.768c0.308,-0.378 0.704,-0.703 1.185,-0.978c1.117,-0.65 2.474,-0.985 4.071,-1.001l0.026,0.026c1.46,-0.018 2.585,0.581 3.375,1.797c0.737,1.114 1.107,2.543 1.107,4.29Z" style="fill:#646464;fill-rule:nonzero;"/><path id="path48" d="M794.653,140.598c0,2.089 -0.209,3.537 -0.628,4.341c-0.421,0.805 -1.221,1.448 -2.404,1.926c-0.959,0.378 -1.995,0.583 -3.108,0.618l-0.31,-1.183c1.131,-0.154 1.928,-0.307 2.39,-0.461c0.909,-0.308 1.533,-0.781 1.876,-1.413c0.275,-0.515 0.411,-1.498 0.411,-2.954l0,-0.489c-1.283,0.584 -2.628,0.873 -4.034,0.873c-0.924,0 -1.739,-0.289 -2.441,-0.873c-0.789,-0.634 -1.183,-1.439 -1.183,-2.414l0,-7.809l1.877,-0.642l0,7.86c0,0.84 0.271,1.486 0.813,1.94c0.542,0.454 1.244,0.671 2.104,0.655c0.86,-0.019 1.782,-0.351 2.761,-1.002l0,-9.17l1.876,0l0,10.197Z" style="fill:#646464;fill-rule:nonzero;"/><path id="path50" d="M801.978,141.805c-0.224,0.018 -0.429,0.026 -0.618,0.026c-1.061,0 -1.889,-0.252 -2.48,-0.759c-0.589,-0.507 -0.885,-1.207 -0.885,-2.1l0,-7.391l-1.285,0l0,-1.18l1.285,0l0,-3.135l1.875,-0.667l0,3.802l2.108,0l0,1.18l-2.108,0l0,7.339c0,0.704 0.188,1.203 0.566,1.495c0.325,0.24 0.84,0.378 1.542,0.412l0,0.978Z" style="fill:#646464;fill-rule:nonzero;"/><path id="path52" d="M813.339,141.651l-1.877,0l0,-7.243c0,-0.737 -0.172,-1.371 -0.515,-1.901c-0.396,-0.599 -0.946,-0.899 -1.653,-0.899c-0.86,0 -1.935,0.454 -3.227,1.361l0,8.682l-1.876,0l0,-17.312l1.876,-0.591l0,7.885c1.199,-0.873 2.509,-1.31 3.932,-1.31c0.993,0 1.798,0.334 2.414,1.002c0.618,0.667 0.926,1.498 0.926,2.492l0,7.834Z" style="fill:#646464;fill-rule:nonzero;"/><path id="path54" d="M823.311,135.808c0,-1.178 -0.223,-2.151 -0.669,-2.921c-0.529,-0.938 -1.353,-1.433 -2.465,-1.484c-2.057,0.119 -3.084,1.593 -3.084,4.417c0,1.296 0.214,2.378 0.645,3.246c0.55,1.107 1.375,1.653 2.476,1.634c2.065,-0.016 3.097,-1.646 3.097,-4.892ZM825.366,135.82c0,1.678 -0.429,3.074 -1.285,4.188c-0.942,1.249 -2.244,1.875 -3.904,1.875c-1.647,0 -2.93,-0.626 -3.856,-1.875c-0.839,-1.114 -1.258,-2.51 -1.258,-4.188c0,-1.576 0.454,-2.902 1.361,-3.982c0.959,-1.146 2.219,-1.72 3.777,-1.72c1.558,0 2.827,0.574 3.804,1.72c0.908,1.08 1.361,2.406 1.361,3.982Z" style="fill:#646464;fill-rule:nonzero;"/><path id="path56" d="M836.123,141.651l-1.876,0l0,-7.653c0,-0.84 -0.252,-1.495 -0.757,-1.967c-0.505,-0.47 -1.179,-0.698 -2.018,-0.68c-0.891,0.017 -1.739,0.308 -2.544,0.873l0,9.427l-1.876,0l0,-9.659c1.08,-0.786 2.073,-1.3 2.981,-1.54c0.856,-0.224 1.611,-0.334 2.262,-0.334c0.445,0 0.864,0.043 1.258,0.129c0.737,0.17 1.337,0.486 1.799,0.95c0.515,0.514 0.771,1.129 0.771,1.85l0,8.604Z" style="fill:#646464;fill-rule:nonzero;"/><path id="path1948" d="M754.89,124.408c-0.965,0.005 -1.887,0.087 -2.698,0.23c-2.39,0.423 -2.824,1.306 -2.824,2.936l0,2.152l5.647,0l0,0.717l-5.647,0l-2.119,0c-1.641,0 -3.078,0.987 -3.528,2.864c-0.518,2.151 -0.541,3.493 0,5.739c0.402,1.672 1.36,2.863 3.001,2.863l1.942,0l0,-2.58c0,-1.864 1.613,-3.508 3.528,-3.508l5.64,0c1.57,0 2.824,-1.293 2.824,-2.87l0,-5.377c0,-1.531 -1.291,-2.68 -2.824,-2.936c-0.97,-0.161 -1.976,-0.234 -2.942,-0.23ZM751.836,126.139c0.584,0 1.06,0.484 1.06,1.079c0,0.594 -0.476,1.073 -1.06,1.073c-0.585,0 -1.059,-0.479 -1.059,-1.073c0,-0.595 0.474,-1.079 1.059,-1.079Z" style="fill:url(#_Linear1);fill-rule:nonzero;"/><path id="path1950" d="M761.36,130.443l0,2.508c0,1.944 -1.648,3.581 -3.528,3.581l-5.64,0c-1.545,0 -2.824,1.322 -2.824,2.869l0,5.377c0,1.531 1.331,2.431 2.824,2.87c1.787,0.526 3.502,0.621 5.64,0c1.422,-0.412 2.824,-1.24 2.824,-2.87l0,-2.152l-5.641,0l0,-0.717l8.464,0c1.642,0 2.253,-1.145 2.824,-2.863c0.59,-1.769 0.564,-3.47 0,-5.739c-0.406,-1.634 -1.18,-2.864 -2.824,-2.864l-2.119,0ZM758.188,144.061c0.585,0 1.059,0.48 1.059,1.073c0,0.595 -0.474,1.079 -1.059,1.079c-0.584,0 -1.06,-0.484 -1.06,-1.079c0,-0.593 0.476,-1.073 1.06,-1.073Z" style="fill:url(#_Linear2);fill-rule:nonzero;"/><path id="text3004" d="M839.777,128.728l0.329,0l0,-2.063l0.78,0l0,-0.246l-1.888,0l0,0.246l0.779,0l0,2.063M841.177,128.728l0.281,0l0,-1.884l0.61,1.884l0.313,0l0.636,-1.878l0,1.878l0.307,0l0,-2.309l-0.406,0l-0.695,1.978l-0.592,-1.978l-0.454,0l0,2.309" style="fill:#646464;fill-rule:nonzero;"/><path id="path1894" d="M762.647,151.304c0,0.805 -3.416,1.467 -7.568,1.467c-4.151,0 -7.567,-0.662 -7.567,-1.467c0,-0.805 3.416,-1.468 7.567,-1.468c4.152,0 7.568,0.663 7.568,1.468Z" style="fill:url(#_Radial3);fill-rule:nonzero;"/></g><path id="Container1" d="M623.926,410.194c0,-3.806 -3.09,-6.896 -6.896,-6.896l-81.044,0c-3.806,0 -6.895,3.09 -6.895,6.896l0,58.275c0,3.806 3.089,6.896 6.895,6.896l81.044,0c3.806,0 6.896,-3.09 6.896,-6.896l0,-58.275Z" style="fill:#fff;stroke-width:0.5px;stroke:#000;"/><path id="App1" d="M593.381,419.406c0,-2.948 -2.393,-5.341 -5.341,-5.341l-44.479,0c-2.948,0 -5.342,2.393 -5.342,5.341l0,40.754c0,2.948 2.394,5.342 5.342,5.342l44.479,0c2.948,0 5.341,-2.394 5.341,-5.342l0,-40.754Z" style="fill:none;stroke-width:1px;stroke:#000;"/><path id="Sidecar1" d="M612.948,417.372c0,-0.601 -0.488,-1.09 -1.089,-1.09l-8.557,0c-0.602,0 -1.09,0.489 -1.09,1.09l0,46.166c0,0.601 0.488,1.09 1.09,1.09l8.557,0c0.601,0 1.089,-0.489 1.089,-1.09l0,-46.166Z" style="fill:#4b252d;stroke-width:0.5px;stroke:#000;"/><text id="App-Name1" x="541.212px" y="444.19px" style="font-family:'Helvetica';font-size:16px;fill:#000;">Details</text><g><path id="polygon3282" d="M556.913,387.473l-17.128,10.171l22.177,-1.505l1.709,-22.363l-6.758,13.697Z" style="fill:url(#_Linear4);"/><path id="polygon3293" d="M561.999,396.124l-1.906,-13.157l-5.193,6.856l7.099,6.301Z" style="fill:url(#_Linear5);"/><path id="polygon3304" d="M562.025,396.124l-13.965,-1.097l-8.201,2.588l22.166,-1.491Z" style="fill:url(#_Linear6);"/><path id="polygon3319" d="M539.879,397.618l3.488,-11.429l-7.677,1.642l4.189,9.787Z" style="fill:url(#_Linear7);"/><path id="polygon3334" d="M554.899,389.861l-3.21,-12.574l-9.186,8.611l12.396,3.963Z" style="fill:url(#_Linear8);"/><path id="polygon3349" d="M562.942,377.465l-8.683,-7.093l-2.419,7.818l11.102,-0.725Z" style="fill:url(#_Linear9);"/><path id="polygon3362" d="M558.881,367.844l-5.107,2.822l-3.222,-2.86l8.329,0.038Z" style="fill:url(#_Linear10);"/><path id="polygon3375" d="M533.671,391.664l2.139,-3.902l-1.731,-4.648l-0.408,8.55Z" style="fill:url(#_Linear11);"/><path id="path3377" d="M533.964,382.967l1.742,4.939l7.566,-1.697l8.638,-8.028l2.438,-7.744l-3.839,-2.71l-6.526,2.442c-2.056,1.913 -6.046,5.697 -6.189,5.768c-0.143,0.072 -2.635,4.783 -3.83,7.03Z" style="fill:#fff;"/><path id="path3400" d="M540.078,374.094c4.457,-4.418 10.201,-7.029 12.406,-4.804c2.203,2.224 -0.133,7.629 -4.589,12.046c-4.457,4.417 -10.13,7.171 -12.333,4.947c-2.205,-2.223 0.06,-7.772 4.516,-12.189l0,0Z" style="fill:url(#_Linear12);"/><path id="path3413" d="M539.879,397.613l3.461,-11.465l11.495,3.693c-4.156,3.898 -8.779,7.193 -14.956,7.772Z" style="fill:url(#_Linear13);"/><path id="path3424" d="M551.925,378.158l2.951,11.689c3.472,-3.65 6.588,-7.575 8.115,-12.429l-11.066,0.74l0,0Z" style="fill:url(#_Linear14);"/><path id="path3435" d="M562.96,377.477c1.181,-3.565 1.454,-8.678 -4.115,-9.627l-4.57,2.524l8.685,7.103Z" style="fill:url(#_Linear15);"/><path id="path3437" d="M533.671,391.613c0.163,5.883 4.407,5.97 6.215,6.022l-4.176,-9.753l-2.039,3.731Z" style="fill:#9e1209;"/><path id="path3448" d="M551.942,378.176c2.668,1.64 8.045,4.933 8.154,4.994c0.169,0.095 2.318,-3.623 2.805,-5.725l-10.959,0.731l0,0Z" style="fill:url(#_Radial16);"/><path id="path3459" d="M543.335,386.148l4.628,8.928c2.736,-1.484 4.878,-3.292 6.841,-5.229l-11.469,-3.699Z" style="fill:url(#_Radial17);"/><path id="path3472" d="M535.692,387.894l-0.656,7.807c1.237,1.69 2.939,1.837 4.724,1.705c-1.291,-3.215 -3.871,-9.642 -4.068,-9.512l0,0Z" style="fill:url(#_Linear18);"/><path id="path3485" d="M554.248,370.393l9.192,1.291c-0.49,-2.079 -1.997,-3.421 -4.565,-3.84l-4.627,2.549Z" style="fill:url(#_Linear19);"/></g><text x="565.205px" y="392.504px" style="font-family:'Helvetica';font-size:18px;fill:#000;">Ruby</text><path id="Container2" d="M369.775,162.098c0,-3.806 -3.09,-6.896 -6.896,-6.896l-120.264,0c-3.806,0 -6.896,3.09 -6.896,6.896l0,58.275c0,3.806 3.09,6.896 6.896,6.896l120.264,0c3.806,0 6.896,-3.09 6.896,-6.896l0,-58.275Z" style="fill:#fff;stroke-width:0.5px;stroke:#000;"/><path id="App2" d="M302.747,171.311c0,-2.948 -2.394,-5.342 -5.341,-5.342l-48.922,0c-2.948,0 -5.341,2.394 -5.341,5.342l0,40.754c0,2.948 2.393,5.341 5.341,5.341l48.922,0c2.947,0 5.341,-2.393 5.341,-5.341l0,-40.754Z" style="fill:none;stroke-width:1px;stroke:#000;"/><path id="Sidecar2" d="M358.577,169.276c0,-0.601 -0.489,-1.09 -1.09,-1.09l-8.557,0c-0.602,0 -1.09,0.489 -1.09,1.09l0,46.166c0,0.602 0.488,1.09 1.09,1.09l8.557,0c0.601,0 1.09,-0.488 1.09,-1.09l0,-46.166Z" style="fill:#4b252d;stroke-width:0.5px;stroke:#000;"/><g id="App-Name2" transform="matrix(1,0,0,1,-592.669,-248.52)"><text x="837.516px" y="435.654px" style="font-family:'Helvetica';font-size:16px;fill:#000;">Product</text><text x="847.289px" y="451.654px" style="font-family:'Helvetica';font-size:16px;fill:#000;">page</text></g><path d="M304.077,193.87l0,-5.269l33.11,0l-4.921,-4.92l2.984,-2.984l10.538,10.539l-10.538,10.538l-2.984,-2.983l4.921,-4.921l-33.11,0Z" style="fill:#fff;fill-opacity:0.752941;stroke-width:1px;stroke:#000;"/><g transform="matrix(1,0,0,1,-141.888,-87.8647)"><text x="377.057px" y="328.946px" style="font-family:'Helvetica-Light', 'Helvetica', sans-serif;font-weight:300;font-size:12px;fill:#000;">Automatic service</text><text x="377.057px" y="340.946px" style="font-family:'Helvetica-Light', 'Helvetica', sans-serif;font-weight:300;font-size:12px;fill:#000;">registration &amp; intelligent load</text><text x="377.057px" y="352.946px" style="font-family:'Helvetica-Light', 'Helvetica', sans-serif;font-weight:300;font-size:12px;fill:#000;">balancing using sidecar</text></g><g transform="matrix(1,0,0,1,-148.599,-120.166)"><text x="678.272px" y="611.583px" style="font-family:'Helvetica-Light', 'Helvetica', sans-serif;font-weight:300;font-size:12px;fill:#000;">Automatic service</text><text x="678.272px" y="623.583px" style="font-family:'Helvetica-Light', 'Helvetica', sans-serif;font-weight:300;font-size:12px;fill:#000;">registration using sidecar</text></g><g id="Python1"><path id="path461" d="M272.616,135.212c0,-3.067 -0.875,-4.642 -2.624,-4.728c-0.696,-0.033 -1.375,0.078 -2.036,0.335c-0.528,0.189 -0.883,0.376 -1.07,0.564l0,7.321c1.119,0.702 2.113,1.028 2.979,0.977c1.833,-0.121 2.751,-1.609 2.751,-4.469ZM274.773,135.339c0,1.558 -0.365,2.852 -1.1,3.88c-0.819,1.164 -1.954,1.764 -3.406,1.797c-1.094,0.034 -2.221,-0.308 -3.381,-1.027l0,6.653l-1.876,-0.669l0,-14.768c0.308,-0.378 0.704,-0.702 1.184,-0.977c1.117,-0.651 2.474,-0.986 4.071,-1.002l0.027,0.026c1.46,-0.018 2.585,0.581 3.375,1.797c0.737,1.114 1.106,2.543 1.106,4.29Z" style="fill:#646464;fill-rule:nonzero;"/><path id="path481" d="M286.241,139.706c0,2.09 -0.21,3.537 -0.628,4.342c-0.421,0.804 -1.222,1.447 -2.404,1.925c-0.959,0.378 -1.996,0.583 -3.108,0.618l-0.31,-1.182c1.131,-0.154 1.927,-0.308 2.389,-0.462c0.91,-0.308 1.534,-0.78 1.877,-1.413c0.275,-0.515 0.41,-1.498 0.41,-2.954l0,-0.488c-1.283,0.583 -2.628,0.872 -4.034,0.872c-0.924,0 -1.739,-0.289 -2.441,-0.872c-0.788,-0.635 -1.182,-1.439 -1.182,-2.414l0,-7.81l1.876,-0.642l0,7.86c0,0.84 0.271,1.487 0.813,1.94c0.542,0.454 1.244,0.672 2.104,0.655c0.861,-0.018 1.782,-0.351 2.761,-1.002l0,-9.17l1.877,0l0,10.197Z" style="fill:#646464;fill-rule:nonzero;"/><path id="path501" d="M293.565,140.913c-0.223,0.018 -0.429,0.027 -0.617,0.027c-1.062,0 -1.889,-0.253 -2.48,-0.76c-0.589,-0.507 -0.885,-1.207 -0.885,-2.1l0,-7.39l-1.285,0l0,-1.181l1.285,0l0,-3.135l1.874,-0.667l0,3.802l2.108,0l0,1.181l-2.108,0l0,7.339c0,0.704 0.189,1.203 0.567,1.494c0.324,0.24 0.839,0.378 1.541,0.413l0,0.977Z" style="fill:#646464;fill-rule:nonzero;"/><path id="path521" d="M304.926,140.759l-1.876,0l0,-7.243c0,-0.737 -0.173,-1.371 -0.515,-1.901c-0.397,-0.599 -0.947,-0.899 -1.653,-0.899c-0.86,0 -1.936,0.454 -3.227,1.361l0,8.682l-1.877,0l0,-17.312l1.877,-0.591l0,7.885c1.199,-0.873 2.508,-1.31 3.931,-1.31c0.994,0 1.798,0.335 2.414,1.002c0.618,0.667 0.926,1.499 0.926,2.492l0,7.834Z" style="fill:#646464;fill-rule:nonzero;"/><path id="path541" d="M314.899,134.916c0,-1.178 -0.224,-2.151 -0.669,-2.921c-0.53,-0.938 -1.353,-1.433 -2.466,-1.484c-2.057,0.119 -3.083,1.593 -3.083,4.418c0,1.295 0.213,2.377 0.644,3.245c0.551,1.107 1.376,1.653 2.476,1.634c2.065,-0.016 3.098,-1.646 3.098,-4.892ZM316.954,134.929c0,1.677 -0.429,3.073 -1.285,4.188c-0.942,1.248 -2.244,1.874 -3.905,1.874c-1.646,0 -2.929,-0.626 -3.855,-1.874c-0.84,-1.115 -1.258,-2.511 -1.258,-4.188c0,-1.577 0.453,-2.903 1.361,-3.983c0.958,-1.145 2.219,-1.72 3.777,-1.72c1.558,0 2.827,0.575 3.804,1.72c0.907,1.08 1.361,2.406 1.361,3.983Z" style="fill:#646464;fill-rule:nonzero;"/><path id="path561" d="M327.711,140.759l-1.876,0l0,-7.653c0,-0.84 -0.253,-1.495 -0.758,-1.967c-0.505,-0.47 -1.178,-0.698 -2.018,-0.679c-0.891,0.016 -1.739,0.308 -2.543,0.872l0,9.427l-1.877,0l0,-9.659c1.08,-0.786 2.074,-1.299 2.981,-1.54c0.856,-0.223 1.612,-0.334 2.262,-0.334c0.446,0 0.865,0.043 1.259,0.129c0.737,0.171 1.336,0.487 1.798,0.951c0.515,0.513 0.772,1.129 0.772,1.849l0,8.604Z" style="fill:#646464;fill-rule:nonzero;"/><path id="path19481" d="M246.478,123.516c-0.966,0.005 -1.887,0.087 -2.699,0.231c-2.389,0.422 -2.823,1.305 -2.823,2.935l0,2.152l5.647,0l0,0.718l-5.647,0l-2.12,0c-1.641,0 -3.078,0.986 -3.527,2.863c-0.519,2.151 -0.542,3.493 0,5.739c0.401,1.672 1.36,2.863 3.001,2.863l1.942,0l0,-2.58c0,-1.864 1.612,-3.508 3.527,-3.508l5.641,0c1.57,0 2.823,-1.293 2.823,-2.87l0,-5.377c0,-1.53 -1.291,-2.68 -2.823,-2.935c-0.97,-0.162 -1.977,-0.235 -2.942,-0.231ZM243.424,125.247c0.583,0 1.06,0.484 1.06,1.08c0,0.593 -0.477,1.072 -1.06,1.072c-0.585,0 -1.06,-0.479 -1.06,-1.072c0,-0.596 0.475,-1.08 1.06,-1.08Z" style="fill:url(#_Linear20);fill-rule:nonzero;"/><path id="path19501" d="M252.948,129.552l0,2.507c0,1.944 -1.649,3.581 -3.528,3.581l-5.641,0c-1.545,0 -2.823,1.322 -2.823,2.869l0,5.378c0,1.53 1.331,2.43 2.823,2.869c1.788,0.526 3.502,0.621 5.641,0c1.422,-0.411 2.823,-1.24 2.823,-2.869l0,-2.153l-5.64,0l0,-0.717l8.464,0c1.641,0 2.253,-1.145 2.824,-2.863c0.589,-1.769 0.564,-3.47 0,-5.739c-0.406,-1.634 -1.181,-2.863 -2.824,-2.863l-2.119,0ZM249.775,143.169c0.586,0 1.06,0.48 1.06,1.073c0,0.595 -0.474,1.079 -1.06,1.079c-0.583,0 -1.059,-0.484 -1.059,-1.079c0,-0.593 0.476,-1.073 1.059,-1.073Z" style="fill:url(#_Linear21);fill-rule:nonzero;"/><path id="text30041" d="M331.365,127.836l0.329,0l0,-2.063l0.779,0l0,-0.246l-1.887,0l0,0.246l0.779,0l0,2.063M332.765,127.836l0.281,0l0,-1.884l0.61,1.884l0.313,0l0.636,-1.878l0,1.878l0.306,0l0,-2.309l-0.405,0l-0.695,1.978l-0.593,-1.978l-0.453,0l0,2.309" style="fill:#646464;fill-rule:nonzero;"/><path id="path18941" d="M254.235,150.412c0,0.805 -3.417,1.467 -7.568,1.467c-4.151,0 -7.568,-0.662 -7.568,-1.467c0,-0.805 3.417,-1.468 7.568,-1.468c4.151,0 7.568,0.663 7.568,1.468Z" style="fill:url(#_Radial22);fill-rule:nonzero;"/></g><path d="M461.392,90.329c0,-8.707 -37.178,-15.777 -82.972,-15.777c-45.794,0 -82.973,7.07 -82.973,15.777c0,7.498 27.754,13.96 66.391,15.458l-31.541,69.831l47.082,-69.514c0.347,0.001 0.694,0.001 1.041,0.001c45.794,0 82.972,-7.069 82.972,-15.776Z" style="fill:#c6c3e0;"/><text x="304.077px" y="92.434px" style="font-family:'Helvetica';font-size:10px;fill:#000;">http://localhost:6379/reviews/...</text><rect id="gateway" x="98.198" y="154.153" width="11.961" height="72.066" style="fill:#4b252d;"/><g transform="matrix(1,0,0,1,-211.425,-86.085)"><text x="275.144px" y="329.658px" style="font-family:'Helvetica-Light', 'Helvetica', sans-serif;font-weight:300;font-size:14px;fill:#000;">API Gateway</text><text x="260.254px" y="341.658px" style="font-family:'Helvetica-Light', 'Helvetica', sans-serif;font-weight:300;font-size:12px;fill:#000;">(standalone sidecar)</text></g><path id="Container3" d="M663.147,221.443c0,-3.806 -3.09,-6.896 -6.896,-6.896l-120.265,0c-3.806,0 -6.895,3.09 -6.895,6.896l0,58.275c0,3.806 3.089,6.896 6.895,6.896l120.265,0c3.806,0 6.896,-3.09 6.896,-6.896l0,-58.275Z" style="fill:#fff;stroke-width:0.5px;stroke:#000;"/><path id="App3" d="M603.733,230.656c0,-2.948 -2.394,-5.342 -5.342,-5.342l-54.83,0c-2.948,0 -5.342,2.394 -5.342,5.342l0,40.754c0,2.948 2.394,5.341 5.342,5.341l54.83,0c2.948,0 5.342,-2.393 5.342,-5.341l0,-40.754Z" style="fill:none;stroke-width:1px;stroke:#000;"/><path id="Sidecar3" d="M651.948,228.621c0,-0.601 -0.488,-1.09 -1.089,-1.09l-8.557,0c-0.602,0 -1.09,0.489 -1.09,1.09l0,46.166c0,0.602 0.488,1.09 1.09,1.09l8.557,0c0.601,0 1.089,-0.488 1.089,-1.09l0,-46.166Z" style="fill:#4b252d;stroke-width:0.5px;stroke:#000;"/><g id="App-Name3" transform="matrix(1,0,0,1,-295.231,-193.175)"><text x="834.856px" y="435.654px" style="font-family:'Helvetica';font-size:16px;fill:#000;">Reviews</text><text x="856.637px" y="451.654px" style="font-family:'Helvetica';font-size:16px;fill:#000;">v3</text></g><path d="M603.733,253.215l0,-5.269l26.826,0l-4.921,-4.92l2.983,-2.984l10.539,10.539l-10.539,10.538l-2.983,-2.983l4.921,-4.921l-26.826,0Z" style="fill:#fff;fill-opacity:0.752941;stroke-width:1px;stroke:#000;"/><path d="M548.667,261.479l1.803,4.759l5.833,0l-4.719,2.941l1.803,4.759l-4.72,-2.941l-4.719,2.941l1.803,-4.759l-4.719,-2.941l5.833,0l1.802,-4.759Z" style="fill:#f30738;"/><path d="M563.667,261.479l1.803,4.759l5.833,0l-4.719,2.941l1.803,4.759l-4.72,-2.941l-4.719,2.941l1.803,-4.759l-4.719,-2.941l5.833,0l1.802,-4.759Z" style="fill:#f50b3c;"/><path d="M578.667,261.479l1.803,4.759l5.833,0l-4.719,2.941l1.803,4.759l-4.72,-2.941l-4.719,2.941l1.803,-4.759l-4.719,-2.941l5.833,0l1.802,-4.759Z" style="fill:#ff0036;"/><path d="M592.667,261.479l1.803,4.759l5.833,0l-4.719,2.941l1.803,4.759l-4.72,-2.941l-4.719,2.941l1.803,-4.759l-4.719,-2.941l5.833,0l1.802,-4.759Z" style="fill:#ff003e;"/><path id="Container4" d="M662.573,122.704c0,-3.806 -3.09,-6.896 -6.896,-6.896l-120.265,0c-3.806,0 -6.896,3.09 -6.896,6.896l0,58.275c0,3.805 3.09,6.895 6.896,6.895l120.265,0c3.806,0 6.896,-3.09 6.896,-6.895l0,-58.275Z" style="fill:#fff;stroke-width:0.5px;stroke:#000;"/><path id="App4" d="M603.159,131.916c0,-2.948 -2.394,-5.341 -5.342,-5.341l-54.831,0c-2.948,0 -5.341,2.393 -5.341,5.341l0,40.754c0,2.948 2.393,5.342 5.341,5.342l54.831,0c2.948,0 5.342,-2.394 5.342,-5.342l0,-40.754Z" style="fill:none;stroke-width:1px;stroke:#000;"/><path id="Sidecar4" d="M651.374,129.882c0,-0.602 -0.488,-1.09 -1.09,-1.09l-8.557,0c-0.601,0 -1.089,0.488 -1.089,1.09l0,46.166c0,0.601 0.488,1.09 1.089,1.09l8.557,0c0.602,0 1.09,-0.489 1.09,-1.09l0,-46.166Z" style="fill:#4b252d;stroke-width:0.5px;stroke:#000;"/><g id="App-Name4" transform="matrix(1,0,0,1,-295.805,-291.915)"><text x="834.856px" y="435.654px" style="font-family:'Helvetica';font-size:16px;fill:#000;">Reviews</text><text x="856.637px" y="451.654px" style="font-family:'Helvetica';font-size:16px;fill:#000;">v2</text></g><path d="M603.159,154.476l0,-5.269l26.825,0l-4.92,-4.921l2.983,-2.983l10.538,10.538l-10.538,10.538l-2.983,-2.983l4.92,-4.92l-26.825,0Z" style="fill:#fff;fill-opacity:0.752941;stroke-width:1px;stroke:#000;"/><path d="M548.093,162.74l1.803,4.759l5.833,0l-4.719,2.941l1.803,4.759l-4.72,-2.941l-4.719,2.941l1.803,-4.759l-4.72,-2.941l5.834,0l1.802,-4.759Z" style="fill:#000;"/><path d="M563.093,162.74l1.803,4.759l5.833,0l-4.719,2.941l1.803,4.759l-4.72,-2.941l-4.719,2.941l1.803,-4.759l-4.72,-2.941l5.834,0l1.802,-4.759Z" style="fill:#000;"/><path d="M578.093,162.74l1.803,4.759l5.833,0l-4.719,2.941l1.803,4.759l-4.72,-2.941l-4.719,2.941l1.803,-4.759l-4.72,-2.941l5.834,0l1.802,-4.759Z" style="fill:#000;"/><path d="M592.093,162.74l1.803,4.759l5.833,0l-4.719,2.941l1.803,4.759l-4.72,-2.941l-4.719,2.941l1.803,-4.759l-4.72,-2.941l5.834,0l1.802,-4.759Z" style="fill:#000;"/><path id="Container5" d="M629.237,33.985c0,-3.806 -3.09,-6.896 -6.896,-6.896l-84.664,0c-3.806,0 -6.896,3.09 -6.896,6.896l0,58.274c0,3.806 3.09,6.896 6.896,6.896l84.664,0c3.806,0 6.896,-3.09 6.896,-6.896l0,-58.274Z" style="fill:#fff;stroke-width:0.5px;stroke:#000;"/><path id="App5" d="M605.423,43.197c0,-2.948 -2.393,-5.341 -5.341,-5.341l-54.831,0c-2.948,0 -5.342,2.393 -5.342,5.341l0,40.754c0,2.948 2.394,5.342 5.342,5.342l54.831,0c2.948,0 5.341,-2.394 5.341,-5.342l0,-40.754Z" style="fill:none;stroke-width:1px;stroke:#000;"/><path id="Sidecar5" d="M623.293,40.039c0,-0.601 -0.488,-1.09 -1.09,-1.09l-8.557,0c-0.601,0 -1.09,0.489 -1.09,1.09l0,46.166c0,0.601 0.489,1.09 1.09,1.09l8.557,0c0.602,0 1.09,-0.489 1.09,-1.09l0,-46.166Z" style="fill:#4b252d;stroke-width:0.5px;stroke:#000;"/><g id="App-Name5" transform="matrix(1,0,0,1,-293.54,-380.634)"><text x="834.856px" y="435.654px" style="font-family:'Helvetica';font-size:16px;fill:#000;">Reviews</text><text x="856.637px" y="451.654px" style="font-family:'Helvetica';font-size:16px;fill:#000;">v1</text></g><path id="reviews" d="M589.533,302.783l-2,0l0,-2l2,0l0,2ZM585.533,302.783l-2,0l0,-2l2,0l0,2ZM581.533,302.783l-2,0l0,-2l2,0l0,2ZM577.533,302.783l-2,0l0,-2l2,0l0,2ZM573.533,302.783l-2,0l0,-2l2,0l0,2ZM569.533,302.783l-2,0l0,-2l2,0l0,2ZM565.533,302.783l-2,0l0,-2l2,0l0,2ZM561.533,302.783l-2,0l0,-2l2,0l0,2ZM557.533,302.783l-2,0l0,-2l2,0l0,2ZM553.533,302.783l-2,0l0,-2l2,0l0,2ZM549.533,302.783l-2,0l0,-2l2,0l0,2ZM545.533,302.783l-2,0l0,-2l2,0l0,2ZM541.533,302.783l-2,0l0,-2l2,0l0,2ZM535.7,300.778l0.194,0.003l0.194,0.002l1.445,0l0,2l-1.451,0l-0.213,-0.002l-0.219,-0.004l-0.181,-0.006l0.064,-1.999l0.167,0.006ZM625.533,302.783l-2,0l0,-2l2,0l0,2ZM621.533,302.783l-2,0l0,-2l2,0l0,2ZM617.533,302.783l-2,0l0,-2l2,0l0,2ZM613.533,302.783l-2,0l0,-2l2,0l0,2ZM609.533,302.783l-2,0l0,-2l2,0l0,2ZM605.533,302.783l-2,0l0,-2l2,0l0,2ZM601.533,302.783l-2,0l0,-2l2,0l0,2ZM597.533,302.783l-2,0l0,-2l2,0l0,2ZM633.533,302.783l-2,0l0,-2l2,0l0,2ZM637.533,302.783l-2,0l0,-2l2,0l0,2ZM641.533,302.783l-2,0l0,-2l2,0l0,2ZM645.533,302.783l-2,0l0,-2l2,0l0,2ZM649.533,302.783l-2,0l0,-2l2,0l0,2ZM653.533,302.783l-2,0l0,-2l2,0l0,2ZM629.533,302.783l-2,0l0,-2l2,0l0,2ZM593.533,302.783l-2,0l0,-2l2,0l0,2ZM657.815,302.601l-0.113,0.016l-0.212,0.029l-0.214,0.025l-0.214,0.024l-0.215,0.02l-0.216,0.018l-0.217,0.015l-0.217,0.012l-0.218,0.01l-0.218,0.007l-0.19,0.004l-0.038,-2l0.177,-0.003l0.193,-0.006l0.193,-0.009l0.192,-0.011l0.191,-0.013l0.19,-0.016l0.19,-0.018l0.19,-0.021l0.188,-0.022l0.188,-0.025l0.1,-0.015l0.29,1.979ZM531.616,300.106l0.177,0.054l0.178,0.051l0.179,0.05l0.18,0.048l0.181,0.045l0.181,0.043l0.183,0.041l0.183,0.039l0.184,0.036l0.184,0.034l0.119,0.021l-0.34,1.971l-0.131,-0.023l-0.209,-0.039l-0.209,-0.041l-0.207,-0.044l-0.207,-0.046l-0.206,-0.049l-0.205,-0.052l-0.204,-0.053l-0.203,-0.057l-0.201,-0.058l-0.201,-0.062l-0.027,-0.008l0.606,-1.906l0.015,0.005ZM662.171,301.348l-0.025,0.011l-0.191,0.082l-0.191,0.08l-0.193,0.078l-0.195,0.075l-0.195,0.073l-0.197,0.071l-0.197,0.068l-0.199,0.066l-0.2,0.063l-0.2,0.062l-0.151,0.043l-0.559,-1.92l0.139,-0.04l0.177,-0.054l0.176,-0.056l0.175,-0.058l0.174,-0.061l0.174,-0.062l0.172,-0.064l0.171,-0.067l0.171,-0.068l0.169,-0.071l0.168,-0.072l0.014,-0.006l0.813,1.827ZM528.135,298.508l0.154,0.095l0.156,0.094l0.157,0.091l0.158,0.09l0.159,0.088l0.161,0.086l0.161,0.084l0.163,0.082l0.164,0.08l0.165,0.078l0.005,0.003l-0.836,1.817l-0.016,-0.008l-0.187,-0.088l-0.185,-0.091l-0.185,-0.093l-0.183,-0.096l-0.182,-0.097l-0.18,-0.1l-0.18,-0.101l-0.177,-0.104l-0.177,-0.106l-0.175,-0.108l-0.157,-0.099l1.069,-1.69l0.148,0.093ZM666.028,298.997l-0.024,0.02l-0.16,0.127l-0.161,0.126l-0.163,0.123l-0.165,0.122l-0.167,0.12l-0.167,0.118l-0.17,0.116l-0.17,0.114l-0.172,0.111l-0.174,0.11l-0.156,0.096l-1.049,-1.702l0.145,-0.09l0.154,-0.097l0.152,-0.099l0.15,-0.1l0.15,-0.103l0.148,-0.104l0.147,-0.106l0.145,-0.107l0.145,-0.109l0.142,-0.111l0.142,-0.113l0.015,-0.012l1.263,1.55ZM524.953,295.851l0.123,0.133l0.123,0.132l0.126,0.129l0.127,0.129l0.128,0.127l0.13,0.125l0.131,0.124l0.133,0.122l0.135,0.121l0.136,0.119l0.135,0.116l-1.301,1.519l-0.144,-0.123l-0.154,-0.135l-0.152,-0.137l-0.15,-0.138l-0.149,-0.14l-0.147,-0.142l-0.146,-0.144l-0.143,-0.145l-0.142,-0.147l-0.14,-0.149l-0.139,-0.15l-0.018,-0.022l1.487,-1.336l0.011,0.012ZM669.133,295.724l-0.033,0.046l-0.122,0.165l-0.123,0.163l-0.126,0.162l-0.127,0.16l-0.13,0.159l-0.131,0.156l-0.133,0.156l-0.135,0.153l-0.136,0.152l-0.139,0.151l-0.109,0.116l-1.456,-1.371l0.102,-0.108l0.122,-0.133l0.12,-0.134l0.12,-0.136l0.117,-0.137l0.116,-0.139l0.114,-0.14l0.113,-0.141l0.11,-0.143l0.11,-0.144l0.107,-0.146l0.026,-0.036l1.623,1.169ZM522.69,292.584l0.084,0.162l0.086,0.16l0.088,0.16l0.09,0.158l0.091,0.157l0.093,0.155l0.096,0.155l0.097,0.153l0.098,0.152l0.101,0.151l0.086,0.126l-1.65,1.13l-0.093,-0.136l-0.114,-0.171l-0.112,-0.172l-0.11,-0.174l-0.108,-0.175l-0.105,-0.176l-0.104,-0.178l-0.102,-0.179l-0.099,-0.18l-0.098,-0.182l-0.095,-0.184l-0.019,-0.038l1.785,-0.901l0.014,0.027ZM671.277,291.744l-0.018,0.048l-0.076,0.194l-0.077,0.193l-0.08,0.192l-0.082,0.191l-0.084,0.189l-0.087,0.188l-0.089,0.187l-0.091,0.186l-0.093,0.185l-0.095,0.183l-0.068,0.127l-1.763,-0.944l0.062,-0.117l0.084,-0.162l0.082,-0.163l0.081,-0.163l0.078,-0.165l0.076,-0.166l0.075,-0.168l0.072,-0.168l0.071,-0.169l0.068,-0.17l0.066,-0.172l0.014,-0.036l1.874,0.7ZM521.388,288.951l0.041,0.182l0.043,0.182l0.045,0.18l0.047,0.18l0.05,0.179l0.052,0.178l0.054,0.177l0.056,0.176l0.058,0.176l0.055,0.159l-1.89,0.653l-0.059,-0.171l-0.066,-0.199l-0.064,-0.199l-0.061,-0.201l-0.059,-0.202l-0.056,-0.203l-0.054,-0.204l-0.051,-0.204l-0.049,-0.206l-0.047,-0.207l-0.035,-0.169l1.956,-0.414l0.034,0.157ZM672.292,287.348l-0.013,0.129l-0.023,0.214l-0.026,0.214l-0.028,0.213l-0.031,0.212l-0.034,0.211l-0.036,0.21l-0.039,0.209l-0.041,0.209l-0.044,0.208l-0.044,0.193l-1.951,-0.439l0.041,-0.18l0.038,-0.183l0.037,-0.184l0.034,-0.185l0.032,-0.185l0.03,-0.187l0.027,-0.187l0.025,-0.188l0.023,-0.188l0.021,-0.189l0.011,-0.116l1.991,0.189ZM521.043,285.737l0.001,0.195l0.004,0.193l0.006,0.193l0.009,0.193l0.011,0.192l0.007,0.111l-1.995,0.14l-0.009,-0.124l-0.012,-0.218l-0.01,-0.217l-0.007,-0.219l-0.004,-0.219l-0.001,-0.213l0,-0.929l2,0l0,0.922ZM672.367,285.161l-2,0l0,-2l2,0l0,2ZM521.043,282.815l-2,0l0,-2l2,0l0,2ZM672.367,281.161l-2,0l0,-2l2,0l0,2ZM521.043,278.815l-2,0l0,-2l2,0l0,2ZM672.367,277.161l-2,0l0,-2l2,0l0,2ZM521.043,274.815l-2,0l0,-2l2,0l0,2ZM672.367,273.161l-2,0l0,-2l2,0l0,2ZM521.043,270.815l-2,0l0,-2l2,0l0,2ZM672.367,269.161l-2,0l0,-2l2,0l0,2ZM521.043,266.815l-2,0l0,-2l2,0l0,2ZM672.367,265.161l-2,0l0,-2l2,0l0,2ZM521.043,262.815l-2,0l0,-2l2,0l0,2ZM672.367,261.161l-2,0l0,-2l2,0l0,2ZM521.043,258.815l-2,0l0,-2l2,0l0,2ZM672.367,257.161l-2,0l0,-2l2,0l0,2ZM521.043,254.815l-2,0l0,-2l2,0l0,2ZM672.367,253.161l-2,0l0,-2l2,0l0,2ZM521.043,250.815l-2,0l0,-2l2,0l0,2ZM672.367,249.161l-2,0l0,-2l2,0l0,2ZM521.043,246.815l-2,0l0,-2l2,0l0,2ZM672.367,245.161l-2,0l0,-2l2,0l0,2ZM521.043,242.815l-2,0l0,-2l2,0l0,2ZM672.367,241.161l-2,0l0,-2l2,0l0,2ZM521.043,238.815l-2,0l0,-2l2,0l0,2ZM672.367,237.161l-2,0l0,-2l2,0l0,2ZM521.043,234.815l-2,0l0,-2l2,0l0,2ZM672.367,233.161l-2,0l0,-2l2,0l0,2ZM521.043,230.815l-2,0l0,-2l2,0l0,2ZM672.367,229.161l-2,0l0,-2l2,0l0,2ZM521.043,226.815l-2,0l0,-2l2,0l0,2ZM672.367,225.161l-2,0l0,-2l2,0l0,2ZM521.043,222.815l-2,0l0,-2l2,0l0,2ZM672.367,221.161l-2,0l0,-2l2,0l0,2ZM521.043,218.815l-2,0l0,-2l2,0l0,2ZM672.367,217.161l-2,0l0,-2l2,0l0,2ZM521.043,214.815l-2,0l0,-2l2,0l0,2ZM672.367,213.161l-2,0l0,-2l2,0l0,2ZM521.043,210.815l-2,0l0,-2l2,0l0,2ZM672.367,209.161l-2,0l0,-2l2,0l0,2ZM521.043,206.815l-2,0l0,-2l2,0l0,2ZM672.367,205.161l-2,0l0,-2l2,0l0,2ZM521.043,202.815l-2,0l0,-2l2,0l0,2ZM672.367,201.161l-2,0l0,-2l2,0l0,2ZM521.043,198.815l-2,0l0,-2l2,0l0,2ZM672.367,197.161l-2,0l0,-2l2,0l0,2ZM521.043,194.815l-2,0l0,-2l2,0l0,2ZM672.367,193.161l-2,0l0,-2l2,0l0,2ZM521.043,190.815l-2,0l0,-2l2,0l0,2ZM672.367,189.161l-2,0l0,-2l2,0l0,2ZM521.043,186.815l-2,0l0,-2l2,0l0,2ZM672.367,185.161l-2,0l0,-2l2,0l0,2ZM521.043,182.815l-2,0l0,-2l2,0l0,2ZM672.367,181.161l-2,0l0,-2l2,0l0,2ZM521.043,178.815l-2,0l0,-2l2,0l0,2ZM672.367,177.161l-2,0l0,-2l2,0l0,2ZM521.043,174.815l-2,0l0,-2l2,0l0,2ZM672.367,173.161l-2,0l0,-2l2,0l0,2ZM521.043,170.815l-2,0l0,-2l2,0l0,2ZM672.367,169.161l-2,0l0,-2l2,0l0,2ZM521.043,166.815l-2,0l0,-2l2,0l0,2ZM672.367,165.161l-2,0l0,-2l2,0l0,2ZM521.043,162.815l-2,0l0,-2l2,0l0,2ZM672.367,161.161l-2,0l0,-2l2,0l0,2ZM521.043,158.815l-2,0l0,-2l2,0l0,2ZM672.367,157.161l-2,0l0,-2l2,0l0,2ZM521.043,154.815l-2,0l0,-2l2,0l0,2ZM672.367,153.161l-2,0l0,-2l2,0l0,2ZM521.043,150.815l-2,0l0,-2l2,0l0,2ZM672.367,149.161l-2,0l0,-2l2,0l0,2ZM521.043,146.815l-2,0l0,-2l2,0l0,2ZM672.367,145.161l-2,0l0,-2l2,0l0,2ZM521.043,142.815l-2,0l0,-2l2,0l0,2ZM672.367,141.161l-2,0l0,-2l2,0l0,2ZM521.043,138.815l-2,0l0,-2l2,0l0,2ZM672.367,137.161l-2,0l0,-2l2,0l0,2ZM521.043,134.815l-2,0l0,-2l2,0l0,2ZM672.367,133.161l-2,0l0,-2l2,0l0,2ZM521.043,130.815l-2,0l0,-2l2,0l0,2ZM672.367,129.161l-2,0l0,-2l2,0l0,2ZM521.043,126.815l-2,0l0,-2l2,0l0,2ZM672.367,125.161l-2,0l0,-2l2,0l0,2ZM521.043,122.815l-2,0l0,-2l2,0l0,2ZM672.367,121.161l-2,0l0,-2l2,0l0,2ZM521.043,118.815l-2,0l0,-2l2,0l0,2ZM672.367,117.161l-2,0l0,-2l2,0l0,2ZM521.043,114.815l-2,0l0,-2l2,0l0,2ZM672.367,113.161l-2,0l0,-2l2,0l0,2ZM521.043,110.815l-2,0l0,-2l2,0l0,2ZM672.367,109.161l-2,0l0,-2l2,0l0,2ZM521.043,106.815l-2,0l0,-2l2,0l0,2ZM672.367,105.161l-2,0l0,-2l2,0l0,2ZM521.043,102.815l-2,0l0,-2l2,0l0,2ZM672.367,101.161l-2,0l0,-2l2,0l0,2ZM521.043,98.815l-2,0l0,-2l2,0l0,2ZM672.367,97.161l-2,0l0,-2l2,0l0,2ZM521.043,94.815l-2,0l0,-2l2,0l0,2ZM672.367,93.161l-2,0l0,-2l2,0l0,2ZM521.043,90.815l-2,0l0,-2l2,0l0,2ZM672.367,89.161l-2,0l0,-2l2,0l0,2ZM521.043,86.815l-2,0l0,-2l2,0l0,2ZM672.367,85.161l-2,0l0,-2l2,0l0,2ZM521.043,82.815l-2,0l0,-2l2,0l0,2ZM672.367,81.161l-2,0l0,-2l2,0l0,2ZM521.043,78.815l-2,0l0,-2l2,0l0,2ZM672.367,77.161l-2,0l0,-2l2,0l0,2ZM521.043,74.815l-2,0l0,-2l2,0l0,2ZM672.367,73.161l-2,0l0,-2l2,0l0,2ZM521.043,70.815l-2,0l0,-2l2,0l0,2ZM672.367,69.161l-2,0l0,-2l2,0l0,2ZM521.043,66.815l-2,0l0,-2l2,0l0,2ZM672.367,65.161l-2,0l0,-2l2,0l0,2ZM521.043,62.815l-2,0l0,-2l2,0l0,2ZM672.367,61.161l-2,0l0,-2l2,0l0,2ZM521.043,58.815l-2,0l0,-2l2,0l0,2ZM672.367,57.161l-2,0l0,-2l2,0l0,2ZM521.043,54.815l-2,0l0,-2l2,0l0,2ZM672.367,53.161l-2,0l0,-2l2,0l0,2ZM521.043,50.815l-2,0l0,-2l2,0l0,2ZM672.367,49.161l-2,0l0,-2l2,0l0,2ZM521.043,46.815l-2,0l0,-2l2,0l0,2ZM672.367,45.161l-2,0l0,-2l2,0l0,2ZM521.043,42.815l-2,0l0,-2l2,0l0,2ZM672.367,41.161l-2,0l0,-2l2,0l0,2ZM521.043,38.815l-2,0l0,-2l2,0l0,2ZM672.367,37.161l-2,0l0,-2l2,0l0,2ZM521.043,34.815l-2,0l0,-2l2,0l0,2ZM672.367,33.161l-2,0l0,-2l2,0l0,2ZM521.043,30.815l-2,0l0,-2l2,0l0,2ZM672.367,27.317l0,1.844l-2,0l0,-1.844l0,0l2,0ZM672.23,25.149l0.026,0.214l0.023,0.214l0.021,0.215l0.018,0.216l0.015,0.217l0.012,0.217l0.01,0.217l0.007,0.219l0.004,0.219l0.001,0.207l-2,0.013l-0.001,-0.194l-0.004,-0.194l-0.006,-0.193l-0.008,-0.193l-0.011,-0.192l-0.014,-0.191l-0.015,-0.191l-0.018,-0.189l-0.021,-0.19l-0.023,-0.188l-0.01,-0.079l1.982,-0.265l0.012,0.091ZM521.249,24.827l-0.003,0.014l-0.03,0.186l-0.027,0.187l-0.025,0.188l-0.023,0.188l-0.02,0.19l-0.018,0.189l-0.016,0.191l-0.013,0.191l-0.011,0.192l-0.009,0.193l-0.003,0.079l-1.999,-0.063l0.003,-0.093l0.01,-0.217l0.012,-0.217l0.016,-0.217l0.017,-0.216l0.021,-0.215l0.023,-0.214l0.026,-0.214l0.028,-0.212l0.031,-0.213l0.034,-0.211l0.005,-0.026l1.971,0.34ZM671.106,20.875l0.077,0.193l0.076,0.195l0.073,0.195l0.07,0.196l0.069,0.198l0.065,0.198l0.064,0.2l0.061,0.201l0.059,0.202l0.049,0.176l-1.928,0.534l-0.045,-0.163l-0.052,-0.178l-0.054,-0.177l-0.056,-0.176l-0.058,-0.175l-0.06,-0.175l-0.062,-0.173l-0.065,-0.172l-0.066,-0.172l-0.068,-0.17l-0.066,-0.158l1.847,-0.768l0.07,0.169ZM522.424,21.016l-0.051,0.112l-0.075,0.167l-0.072,0.168l-0.07,0.169l-0.069,0.17l-0.066,0.172l-0.064,0.172l-0.063,0.173l-0.06,0.175l-0.058,0.175l-0.056,0.176l-0.011,0.037l-1.914,-0.583l0.015,-0.049l0.064,-0.199l0.066,-0.199l0.068,-0.198l0.071,-0.196l0.073,-0.196l0.075,-0.194l0.077,-0.193l0.08,-0.192l0.082,-0.19l0.085,-0.19l0.056,-0.123l1.817,0.836ZM668.855,16.956l0.123,0.163l0.122,0.165l0.12,0.166l0.117,0.168l0.116,0.169l0.114,0.171l0.112,0.172l0.11,0.174l0.108,0.175l0.106,0.176l0.015,0.027l-1.728,1.007l-0.009,-0.015l-0.093,-0.156l-0.095,-0.155l-0.097,-0.153l-0.099,-0.152l-0.101,-0.151l-0.102,-0.149l-0.104,-0.148l-0.106,-0.147l-0.107,-0.146l-0.11,-0.144l-0.104,-0.134l1.58,-1.226l0.112,0.143ZM524.563,17.65l-0.083,0.099l-0.114,0.14l-0.112,0.141l-0.111,0.143l-0.109,0.144l-0.108,0.146l-0.106,0.147l-0.104,0.148l-0.102,0.149l-0.101,0.151l-0.098,0.152l-0.033,0.052l-1.69,-1.07l0.039,-0.062l0.112,-0.172l0.114,-0.17l0.116,-0.17l0.118,-0.168l0.119,-0.166l0.122,-0.164l0.124,-0.164l0.125,-0.162l0.128,-0.16l0.129,-0.158l0.09,-0.108l1.535,1.282ZM665.519,13.661l0.164,0.123l0.161,0.126l0.16,0.127l0.159,0.13l0.157,0.131l0.155,0.133l0.154,0.134l0.152,0.137l0.151,0.138l0.148,0.141l0.137,0.131l-1.389,1.44l-0.128,-0.124l-0.131,-0.124l-0.133,-0.122l-0.134,-0.121l-0.136,-0.119l-0.138,-0.117l-0.138,-0.116l-0.14,-0.114l-0.142,-0.113l-0.142,-0.111l-0.145,-0.109l-0.012,-0.009l1.189,-1.609l0.021,0.017ZM527.508,14.96l-0.127,0.089l-0.147,0.106l-0.145,0.107l-0.144,0.109l-0.143,0.111l-0.142,0.113l-0.14,0.114l-0.138,0.116l-0.137,0.117l-0.136,0.119l-0.135,0.121l-0.027,0.025l-1.354,-1.471l0.036,-0.034l0.152,-0.137l0.154,-0.134l0.155,-0.133l0.157,-0.131l0.159,-0.13l0.16,-0.127l0.162,-0.126l0.163,-0.123l0.165,-0.122l0.166,-0.12l0.136,-0.096l1.15,1.637ZM661.571,11.455l0.193,0.078l0.191,0.08l0.191,0.082l0.19,0.084l0.188,0.087l0.187,0.089l0.186,0.09l0.184,0.094l0.183,0.095l0.182,0.097l0.152,0.084l-0.966,1.751l-0.141,-0.077l-0.161,-0.086l-0.161,-0.084l-0.163,-0.083l-0.164,-0.08l-0.165,-0.078l-0.166,-0.077l-0.167,-0.074l-0.168,-0.072l-0.169,-0.071l-0.171,-0.068l-0.011,-0.004l0.723,-1.865l0.023,0.008ZM531.054,13.136l-0.137,0.049l-0.172,0.064l-0.171,0.067l-0.17,0.068l-0.17,0.071l-0.168,0.072l-0.167,0.074l-0.166,0.077l-0.165,0.078l-0.164,0.08l-0.163,0.083l-0.021,0.01l-0.923,-1.774l0.032,-0.016l0.185,-0.094l0.185,-0.09l0.187,-0.089l0.189,-0.087l0.189,-0.084l0.191,-0.082l0.192,-0.08l0.193,-0.078l0.194,-0.075l0.195,-0.073l0.149,-0.053l0.676,1.882ZM657.276,10.383l0.214,0.025l0.212,0.029l0.212,0.031l0.211,0.034l0.211,0.036l0.209,0.039l0.209,0.041l0.208,0.044l0.206,0.046l0.206,0.049l0.034,0.009l-0.487,1.94l-0.022,-0.006l-0.181,-0.043l-0.182,-0.041l-0.184,-0.039l-0.183,-0.036l-0.185,-0.034l-0.186,-0.032l-0.186,-0.03l-0.187,-0.027l-0.188,-0.025l-0.188,-0.023l-0.096,-0.011l0.215,-1.988l0.108,0.012ZM534.957,12.314l-0.026,0.001l-0.19,0.016l-0.19,0.018l-0.189,0.021l-0.189,0.023l-0.188,0.025l-0.187,0.027l-0.186,0.03l-0.186,0.032l-0.184,0.034l-0.184,0.036l-0.08,0.017l-0.413,-1.957l0.091,-0.019l0.209,-0.041l0.209,-0.039l0.211,-0.036l0.211,-0.034l0.212,-0.031l0.213,-0.029l0.213,-0.025l0.215,-0.024l0.215,-0.02l0.215,-0.018l0.039,-0.002l0.139,1.995ZM538.956,12.272l-2,0l0,-2l2,0l0,2ZM542.956,12.272l-2,0l0,-2l2,0l0,2ZM546.956,12.272l-2,0l0,-2l2,0l0,2ZM550.956,12.272l-2,0l0,-2l2,0l0,2ZM554.956,12.272l-2,0l0,-2l2,0l0,2ZM558.956,12.272l-2,0l0,-2l2,0l0,2ZM562.956,12.272l-2,0l0,-2l2,0l0,2ZM566.956,12.272l-2,0l0,-2l2,0l0,2ZM570.956,12.272l-2,0l0,-2l2,0l0,2ZM574.956,12.272l-2,0l0,-2l2,0l0,2ZM578.956,12.272l-2,0l0,-2l2,0l0,2ZM582.956,12.272l-2,0l0,-2l2,0l0,2ZM586.956,12.272l-2,0l0,-2l2,0l0,2ZM590.956,12.272l-2,0l0,-2l2,0l0,2ZM594.956,12.272l-2,0l0,-2l2,0l0,2ZM598.956,12.272l-2,0l0,-2l2,0l0,2ZM602.956,12.272l-2,0l0,-2l2,0l0,2ZM606.956,12.272l-2,0l0,-2l2,0l0,2ZM610.956,12.272l-2,0l0,-2l2,0l0,2ZM614.956,12.272l-2,0l0,-2l2,0l0,2ZM618.956,12.272l-2,0l0,-2l2,0l0,2ZM622.956,12.272l-2,0l0,-2l2,0l0,2ZM626.956,12.272l-2,0l0,-2l2,0l0,2ZM630.956,12.272l-2,0l0,-2l2,0l0,2ZM634.956,12.272l-2,0l0,-2l2,0l0,2ZM638.956,12.272l-2,0l0,-2l2,0l0,2ZM642.956,12.272l-2,0l0,-2l2,0l0,2ZM646.956,12.272l-2,0l0,-2l2,0l0,2ZM650.956,12.272l-2,0l0,-2l2,0l0,2ZM654.956,12.272l-2,0l0,-2l2,0l0,2Z" style="fill:#000;"/><g id="Java"><path id="path156" d="M498.054,0.02c0.877,0.999 1.167,2.428 0.915,3.717c-0.271,1.448 -1.075,2.728 -2.018,3.83c-0.756,0.887 -1.625,1.672 -2.531,2.401c-1.056,0.85 -2.093,1.765 -2.756,2.961c-0.56,0.971 -0.691,2.167 -0.308,3.222c0.626,1.812 2.083,3.157 2.877,4.867c-0.878,-0.775 -1.737,-1.579 -2.541,-2.429c-0.841,-0.897 -1.634,-1.849 -2.158,-2.97c-0.354,-0.785 -0.513,-1.7 -0.242,-2.531c0.271,-0.851 0.878,-1.532 1.485,-2.168c1.69,-1.69 3.773,-2.933 5.427,-4.651c0.916,-0.944 1.672,-2.074 1.934,-3.372c0.214,-0.953 0.112,-1.934 -0.084,-2.877" style="fill:#e9232e;fill-rule:nonzero;"/><path id="path158" d="M498.054,0.02c0.877,0.999 1.167,2.428 0.915,3.717c-0.271,1.448 -1.075,2.728 -2.018,3.83c-0.756,0.887 -1.625,1.672 -2.531,2.401c-1.056,0.85 -2.093,1.765 -2.756,2.961c-0.56,0.971 -0.691,2.167 -0.308,3.222c0.626,1.812 2.083,3.157 2.877,4.867c-0.878,-0.775 -1.737,-1.579 -2.541,-2.429c-0.841,-0.897 -1.634,-1.849 -2.158,-2.97c-0.354,-0.785 -0.513,-1.7 -0.242,-2.531c0.271,-0.851 0.878,-1.532 1.485,-2.168c1.69,-1.69 3.773,-2.933 5.427,-4.651c0.916,-0.944 1.672,-2.074 1.934,-3.372c0.214,-0.953 0.112,-1.934 -0.084,-2.877l0,0Z" style="fill:none;stroke-width:0.02px;stroke-linecap:butt;stroke-linejoin:miter;stroke:#e9232e;"/><path id="path160" d="M496.672,10.658c1.812,-1.336 3.932,-2.186 6.08,-2.802c-1.699,1.083 -3.474,2.073 -4.941,3.465c-0.532,0.514 -1.036,1.103 -1.27,1.822c-0.178,0.532 -0.103,1.121 0.112,1.625c0.393,0.897 1.055,1.625 1.56,2.447c0.43,0.701 0.504,1.598 0.178,2.354c-0.496,1.112 -1.467,1.925 -2.476,2.569c-0.131,0.075 -0.243,0.215 -0.402,0.234c0.673,-0.608 1.196,-1.467 1.177,-2.392c-0.018,-0.691 -0.401,-1.298 -0.85,-1.793c-0.924,-1.102 -1.7,-2.504 -1.541,-3.989c0.159,-1.485 1.224,-2.68 2.373,-3.54" style="fill:#e9232e;fill-rule:nonzero;"/><path id="path162" d="M496.672,10.658c1.812,-1.336 3.932,-2.186 6.08,-2.802c-1.699,1.083 -3.474,2.073 -4.941,3.465c-0.532,0.514 -1.036,1.103 -1.27,1.822c-0.178,0.532 -0.103,1.121 0.112,1.625c0.393,0.897 1.055,1.625 1.56,2.447c0.43,0.701 0.504,1.598 0.178,2.354c-0.496,1.112 -1.467,1.925 -2.476,2.569c-0.131,0.075 -0.243,0.215 -0.402,0.234c0.673,-0.608 1.196,-1.467 1.177,-2.392c-0.018,-0.691 -0.401,-1.298 -0.85,-1.793c-0.924,-1.102 -1.7,-2.504 -1.541,-3.989c0.159,-1.485 1.224,-2.68 2.373,-3.54l0,0Z" style="fill:none;stroke-width:0.02px;stroke-linecap:butt;stroke-linejoin:miter;stroke:#e9232e;"/><path id="path164" d="M503.098,21.457c0.392,-0.477 1.018,-0.598 1.588,-0.673c0.99,-0.131 2.046,0.121 2.793,0.803c0.616,0.551 0.962,1.411 0.831,2.242c-0.14,0.962 -0.785,1.766 -1.513,2.373c-1.317,1.055 -2.942,1.672 -4.568,2.083c0.094,-0.103 0.197,-0.197 0.318,-0.271c1.233,-0.664 2.457,-1.439 3.363,-2.522c0.551,-0.673 0.98,-1.551 0.803,-2.438c-0.187,-1.028 -1.186,-1.775 -2.204,-1.831c-0.487,-0.047 -0.944,0.14 -1.411,0.234" style="fill:#3471c0;fill-rule:nonzero;"/><path id="path166" d="M503.098,21.457c0.392,-0.477 1.018,-0.598 1.588,-0.673c0.99,-0.131 2.046,0.121 2.793,0.803c0.616,0.551 0.962,1.411 0.831,2.242c-0.14,0.962 -0.785,1.766 -1.513,2.373c-1.317,1.055 -2.942,1.672 -4.568,2.083c0.094,-0.103 0.197,-0.197 0.318,-0.271c1.233,-0.664 2.457,-1.439 3.363,-2.522c0.551,-0.673 0.98,-1.551 0.803,-2.438c-0.187,-1.028 -1.186,-1.775 -2.204,-1.831c-0.487,-0.047 -0.944,0.14 -1.411,0.234l0,0Z" style="fill:none;stroke-width:0.02px;stroke-linecap:butt;stroke-linejoin:miter;stroke:#3471c0;"/><path id="path168" d="M484.322,22.306c1.718,-0.738 3.587,-1.214 5.464,-1.186c-1.093,0.317 -2.214,0.588 -3.241,1.074c-0.243,0.131 -0.523,0.252 -0.663,0.505c-0.075,0.196 0.13,0.326 0.28,0.392c0.635,0.261 1.336,0.299 2.017,0.364c2.391,0.159 4.792,0.066 7.175,-0.084c2.353,-0.149 4.689,-0.467 7.014,-0.841c-0.513,0.243 -1.037,0.486 -1.513,0.794c-0.243,0.168 -0.542,0.215 -0.812,0.281c-2.859,0.635 -5.792,0.831 -8.706,0.878c-1.131,0.009 -2.251,-0.01 -3.372,-0.084c-1.252,-0.084 -2.513,-0.178 -3.737,-0.505c-0.355,-0.103 -0.728,-0.215 -1.009,-0.467c-0.14,-0.112 -0.14,-0.336 -0.018,-0.467c0.308,-0.318 0.738,-0.467 1.121,-0.654" style="fill:#3471c0;fill-rule:nonzero;"/><path id="path170" d="M484.322,22.306c1.718,-0.738 3.587,-1.214 5.464,-1.186c-1.093,0.317 -2.214,0.588 -3.241,1.074c-0.243,0.131 -0.523,0.252 -0.663,0.505c-0.075,0.196 0.13,0.326 0.28,0.392c0.635,0.261 1.336,0.299 2.017,0.364c2.391,0.159 4.792,0.066 7.175,-0.084c2.353,-0.149 4.689,-0.467 7.014,-0.841c-0.513,0.243 -1.037,0.486 -1.513,0.794c-0.243,0.168 -0.542,0.215 -0.812,0.281c-2.859,0.635 -5.792,0.831 -8.706,0.878c-1.131,0.009 -2.251,-0.01 -3.372,-0.084c-1.252,-0.084 -2.513,-0.178 -3.737,-0.505c-0.355,-0.103 -0.728,-0.215 -1.009,-0.467c-0.14,-0.112 -0.14,-0.336 -0.018,-0.467c0.308,-0.318 0.738,-0.467 1.121,-0.654l0,0Z" style="fill:none;stroke-width:0.02px;stroke-linecap:butt;stroke-linejoin:miter;stroke:#3471c0;"/><path id="path172" d="M486.527,26.295c0.486,-0.383 1.065,-0.598 1.644,-0.803c-0.187,0.224 -0.448,0.439 -0.467,0.747c-0.009,0.196 0.15,0.346 0.308,0.439c0.308,0.159 0.654,0.215 1,0.262c1.793,0.187 3.605,0.289 5.417,0.168c1.653,-0.084 3.298,-0.355 4.933,-0.645c0.448,0.421 0.98,0.71 1.541,0.962c-1.972,0.579 -3.998,0.916 -6.035,1.075c-1.924,0.13 -3.876,0.121 -5.791,-0.187c-0.757,-0.14 -1.532,-0.299 -2.223,-0.654c-0.28,-0.15 -0.598,-0.346 -0.682,-0.673c-0.056,-0.28 0.15,-0.532 0.355,-0.691" style="fill:#3471c0;fill-rule:nonzero;"/><path id="path174" d="M486.527,26.295c0.486,-0.383 1.065,-0.598 1.644,-0.803c-0.187,0.224 -0.448,0.439 -0.467,0.747c-0.009,0.196 0.15,0.346 0.308,0.439c0.308,0.159 0.654,0.215 1,0.262c1.793,0.187 3.605,0.289 5.417,0.168c1.653,-0.084 3.298,-0.355 4.933,-0.645c0.448,0.421 0.98,0.71 1.541,0.962c-1.972,0.579 -3.998,0.916 -6.035,1.075c-1.924,0.13 -3.876,0.121 -5.791,-0.187c-0.757,-0.14 -1.532,-0.299 -2.223,-0.654c-0.28,-0.15 -0.598,-0.346 -0.682,-0.673c-0.056,-0.28 0.15,-0.532 0.355,-0.691l0,0Z" style="fill:none;stroke-width:0.02px;stroke-linecap:butt;stroke-linejoin:miter;stroke:#3471c0;"/><path id="path176" d="M487.611,30.367c0.43,-0.346 0.962,-0.524 1.486,-0.673c-0.169,0.159 -0.468,0.355 -0.337,0.626c0.253,0.327 0.719,0.364 1.093,0.449c1.579,0.195 3.176,0.326 4.755,0.205c1.195,-0.075 2.372,-0.29 3.54,-0.495c0.672,0.392 1.373,0.728 2.092,1.027c-1.102,0.495 -2.288,0.813 -3.474,1.037c-1.999,0.355 -4.064,0.402 -6.072,0.084c-0.888,-0.159 -1.794,-0.364 -2.597,-0.803c-0.308,-0.177 -0.635,-0.383 -0.766,-0.729c-0.103,-0.271 0.065,-0.56 0.28,-0.728" style="fill:#3471c0;fill-rule:nonzero;"/><path id="path178" d="M487.611,30.367c0.43,-0.346 0.962,-0.524 1.486,-0.673c-0.169,0.159 -0.468,0.355 -0.337,0.626c0.253,0.327 0.719,0.364 1.093,0.449c1.579,0.195 3.176,0.326 4.755,0.205c1.195,-0.075 2.372,-0.29 3.54,-0.495c0.672,0.392 1.373,0.728 2.092,1.027c-1.102,0.495 -2.288,0.813 -3.474,1.037c-1.999,0.355 -4.064,0.402 -6.072,0.084c-0.888,-0.159 -1.794,-0.364 -2.597,-0.803c-0.308,-0.177 -0.635,-0.383 -0.766,-0.729c-0.103,-0.271 0.065,-0.56 0.28,-0.728l0,0Z" style="fill:none;stroke-width:0.02px;stroke-linecap:butt;stroke-linejoin:miter;stroke:#3471c0;"/><path id="path180" d="M482.426,33.01c0.86,-0.289 1.747,-0.523 2.653,-0.551c0.365,-0.009 0.738,0.009 1.056,0.196c-1.084,0.066 -2.167,0.336 -3.139,0.831c-0.215,0.122 -0.458,0.262 -0.542,0.514c0,0.29 0.327,0.383 0.542,0.476c1.355,0.505 2.802,0.664 4.222,0.813c4.232,0.355 8.491,0.262 12.722,-0.121c1.598,-0.178 3.204,-0.355 4.755,-0.794c0.495,-0.168 1.055,-0.336 1.382,-0.775c0.197,-0.262 0.066,-0.589 -0.13,-0.813c0.317,0.178 0.766,0.402 0.701,0.831c-0.122,0.449 -0.58,0.682 -0.954,0.897c-1.195,0.607 -2.512,0.916 -3.82,1.186c-3.802,0.748 -7.697,0.916 -11.564,0.804c-2.914,-0.103 -5.829,-0.383 -8.706,-0.878c-0.513,-0.122 -1.092,-0.225 -1.466,-0.626c-0.243,-0.281 -0.028,-0.673 0.205,-0.878c0.589,-0.542 1.346,-0.841 2.083,-1.112" style="fill:#3471c0;fill-rule:nonzero;"/><path id="path182" d="M482.426,33.01c0.86,-0.289 1.747,-0.523 2.653,-0.551c0.365,-0.009 0.738,0.009 1.056,0.196c-1.084,0.066 -2.167,0.336 -3.139,0.831c-0.215,0.122 -0.458,0.262 -0.542,0.514c0,0.29 0.327,0.383 0.542,0.476c1.355,0.505 2.802,0.664 4.222,0.813c4.232,0.355 8.491,0.262 12.722,-0.121c1.598,-0.178 3.204,-0.355 4.755,-0.794c0.495,-0.168 1.055,-0.336 1.382,-0.775c0.197,-0.262 0.066,-0.589 -0.13,-0.813c0.317,0.178 0.766,0.402 0.701,0.831c-0.122,0.449 -0.58,0.682 -0.954,0.897c-1.195,0.607 -2.512,0.916 -3.82,1.186c-3.802,0.748 -7.697,0.916 -11.564,0.804c-2.914,-0.103 -5.829,-0.383 -8.706,-0.878c-0.513,-0.122 -1.092,-0.225 -1.466,-0.626c-0.243,-0.281 -0.028,-0.673 0.205,-0.878c0.589,-0.542 1.346,-0.841 2.083,-1.112l0,0Z" style="fill:none;stroke-width:0.02px;stroke-linecap:butt;stroke-linejoin:miter;stroke:#3471c0;"/><path id="path184" d="M505.705,36.205c0.944,-0.327 1.953,-0.672 2.653,-1.42c-0.121,0.813 -0.822,1.374 -1.513,1.738c-1.326,0.691 -2.812,1.009 -4.287,1.27c-3.121,0.495 -6.287,0.616 -9.454,0.561c-2.157,-0.066 -4.334,-0.15 -6.454,-0.598c-0.505,-0.14 -1.046,-0.234 -1.485,-0.533c1.886,0.318 3.802,0.449 5.717,0.523c3.147,0.094 6.304,-0.027 9.434,-0.42c1.812,-0.252 3.633,-0.56 5.389,-1.121" style="fill:#3471c0;fill-rule:nonzero;"/><path id="path186" d="M505.705,36.205c0.944,-0.327 1.953,-0.672 2.653,-1.42c-0.121,0.813 -0.822,1.374 -1.513,1.738c-1.326,0.691 -2.812,1.009 -4.287,1.27c-3.121,0.495 -6.287,0.616 -9.454,0.561c-2.157,-0.066 -4.334,-0.15 -6.454,-0.598c-0.505,-0.14 -1.046,-0.234 -1.485,-0.533c1.886,0.318 3.802,0.449 5.717,0.523c3.147,0.094 6.304,-0.027 9.434,-0.42c1.812,-0.252 3.633,-0.56 5.389,-1.121Z" style="fill:none;stroke-width:0.02px;stroke-linecap:butt;stroke-linejoin:miter;stroke:#3471c0;"/><path id="path188" d="M481.09,50.058c0.009,-3.063 -0.009,-6.127 0.009,-9.2c0.636,0.018 1.271,0 1.906,0.018c-0.009,3.429 0,6.866 -0.009,10.303c-0.019,0.963 -0.038,1.971 -0.505,2.83c-0.514,0.916 -1.429,1.561 -2.4,1.934c-0.309,-0.336 -0.589,-0.691 -0.897,-1.027c0.785,-0.458 1.569,-1.112 1.756,-2.055c0.178,-0.925 0.122,-1.868 0.14,-2.803" style="fill:#e9232e;fill-rule:nonzero;"/><path id="path190" d="M481.09,50.058c0.009,-3.063 -0.009,-6.127 0.009,-9.2c0.636,0.018 1.271,0 1.906,0.018c-0.009,3.429 0,6.866 -0.009,10.303c-0.019,0.963 -0.038,1.971 -0.505,2.83c-0.514,0.916 -1.429,1.561 -2.4,1.934c-0.309,-0.336 -0.589,-0.691 -0.897,-1.027c0.785,-0.458 1.569,-1.112 1.756,-2.055c0.178,-0.925 0.122,-1.868 0.14,-2.803Z" style="fill:none;stroke-width:0.02px;stroke-linecap:butt;stroke-linejoin:miter;stroke:#e9232e;"/><path id="path192" d="M487.088,48.882c-0.411,0.13 -0.794,0.429 -0.906,0.859c-0.13,0.476 -0.093,1.037 0.215,1.439c0.299,0.392 0.841,0.485 1.308,0.429c0.654,-0.075 1.224,-0.448 1.728,-0.85c0,-0.7 -0.009,-1.391 0,-2.092c-0.785,0 -1.588,-0.047 -2.345,0.215l0,0ZM484.772,44.548c1.261,-0.542 2.662,-0.823 4.035,-0.673c0.71,0.084 1.448,0.346 1.906,0.916c0.382,0.485 0.523,1.111 0.513,1.718l0,6.268l-1.41,0c-0.047,-0.309 -0.093,-0.626 -0.131,-0.944c-0.532,0.421 -1.102,0.822 -1.765,0.99c-0.757,0.197 -1.588,0.178 -2.326,-0.112c-0.57,-0.233 -1.018,-0.747 -1.177,-1.345c-0.234,-0.868 -0.112,-1.886 0.504,-2.587c0.551,-0.645 1.383,-0.962 2.205,-1.112c0.756,-0.149 1.532,-0.149 2.307,-0.149c-0.019,-0.589 0.093,-1.233 -0.243,-1.756c-0.271,-0.402 -0.766,-0.561 -1.223,-0.588c-1,-0.085 -1.99,0.168 -2.934,0.495c-0.093,-0.374 -0.177,-0.748 -0.261,-1.121" style="fill:#e9232e;fill-rule:nonzero;"/><path id="path194" d="M487.088,48.882c-0.411,0.13 -0.794,0.429 -0.906,0.859c-0.13,0.476 -0.093,1.037 0.215,1.439c0.299,0.392 0.841,0.485 1.308,0.429c0.654,-0.075 1.224,-0.448 1.728,-0.85c0,-0.7 -0.009,-1.391 0,-2.092c-0.785,0 -1.588,-0.047 -2.345,0.215l0,0ZM484.772,44.548c1.261,-0.542 2.662,-0.823 4.035,-0.673c0.71,0.084 1.448,0.346 1.906,0.916c0.382,0.485 0.523,1.111 0.513,1.718l0,6.268l-1.41,0c-0.047,-0.309 -0.093,-0.626 -0.131,-0.944c-0.532,0.421 -1.102,0.822 -1.765,0.99c-0.757,0.197 -1.588,0.178 -2.326,-0.112c-0.57,-0.233 -1.018,-0.747 -1.177,-1.345c-0.234,-0.868 -0.112,-1.886 0.504,-2.587c0.551,-0.645 1.383,-0.962 2.205,-1.112c0.756,-0.149 1.532,-0.149 2.307,-0.149c-0.019,-0.589 0.093,-1.233 -0.243,-1.756c-0.271,-0.402 -0.766,-0.561 -1.223,-0.588c-1,-0.085 -1.99,0.168 -2.934,0.495c-0.093,-0.374 -0.177,-0.748 -0.261,-1.121" style="fill:none;stroke-width:0.02px;stroke-linecap:butt;stroke-linejoin:miter;stroke:#e9232e;"/><path id="path196" d="M503.481,48.889c-0.393,0.131 -0.757,0.43 -0.879,0.841c-0.13,0.476 -0.093,1.037 0.206,1.448c0.308,0.401 0.859,0.485 1.336,0.429c0.644,-0.093 1.233,-0.448 1.719,-0.878c-0.019,-0.682 -0.01,-1.373 -0.01,-2.064c-0.794,0 -1.606,-0.047 -2.372,0.224ZM501.192,44.546c1.27,-0.542 2.672,-0.832 4.054,-0.673c0.691,0.084 1.401,0.336 1.859,0.878c0.429,0.514 0.56,1.196 0.551,1.85c-0.01,2.064 0.009,4.119 -0.019,6.183c-0.467,-0.018 -0.934,0.01 -1.401,-0.018c-0.047,-0.318 -0.084,-0.626 -0.14,-0.935c-0.654,0.561 -1.439,1.019 -2.326,1.093c-0.813,0.075 -1.728,-0.027 -2.363,-0.607c-0.664,-0.616 -0.775,-1.616 -0.607,-2.466c0.158,-0.784 0.747,-1.429 1.457,-1.775c1.111,-0.541 2.382,-0.569 3.596,-0.56c-0.019,-0.57 0.084,-1.177 -0.206,-1.691c-0.224,-0.411 -0.7,-0.598 -1.148,-0.644c-1.037,-0.112 -2.074,0.149 -3.046,0.486c-0.084,-0.374 -0.177,-0.748 -0.261,-1.121" style="fill:#e9232e;fill-rule:nonzero;"/><path id="path198" d="M503.481,48.889c-0.393,0.131 -0.757,0.43 -0.879,0.841c-0.13,0.476 -0.093,1.037 0.206,1.448c0.308,0.401 0.859,0.485 1.336,0.429c0.644,-0.093 1.233,-0.448 1.719,-0.878c-0.019,-0.682 -0.01,-1.373 -0.01,-2.064c-0.794,0 -1.606,-0.047 -2.372,0.224ZM501.192,44.546c1.27,-0.542 2.672,-0.832 4.054,-0.673c0.691,0.084 1.401,0.336 1.859,0.878c0.429,0.514 0.56,1.196 0.551,1.85c-0.01,2.064 0.009,4.119 -0.019,6.183c-0.467,-0.018 -0.934,0.01 -1.401,-0.018c-0.047,-0.318 -0.084,-0.626 -0.14,-0.935c-0.654,0.561 -1.439,1.019 -2.326,1.093c-0.813,0.075 -1.728,-0.027 -2.363,-0.607c-0.664,-0.616 -0.775,-1.616 -0.607,-2.466c0.158,-0.784 0.747,-1.429 1.457,-1.775c1.111,-0.541 2.382,-0.569 3.596,-0.56c-0.019,-0.57 0.084,-1.177 -0.206,-1.691c-0.224,-0.411 -0.7,-0.598 -1.148,-0.644c-1.037,-0.112 -2.074,0.149 -3.046,0.486c-0.084,-0.374 -0.177,-0.748 -0.261,-1.121" style="fill:none;stroke-width:0.02px;stroke-linecap:butt;stroke-linejoin:miter;stroke:#e9232e;"/><path id="path200" d="M492.29,43.985l1.962,0c0.383,1.233 0.756,2.457 1.14,3.69c0.223,0.756 0.504,1.503 0.663,2.279c0.084,0.345 0.158,0.701 0.261,1.037c0.804,-2.27 1.42,-4.615 1.738,-7.006l1.905,0c-0.551,3.026 -1.419,6.006 -2.727,8.79l-2.242,0c-0.897,-2.933 -1.803,-5.857 -2.7,-8.79" style="fill:#e9232e;fill-rule:nonzero;"/><path id="path202" d="M492.29,43.985l1.962,0c0.383,1.233 0.756,2.457 1.14,3.69c0.223,0.756 0.504,1.503 0.663,2.279c0.084,0.345 0.158,0.701 0.261,1.037c0.804,-2.27 1.42,-4.615 1.738,-7.006l1.905,0c-0.551,3.026 -1.419,6.006 -2.727,8.79l-2.242,0c-0.897,-2.933 -1.803,-5.857 -2.7,-8.79l0,0Z" style="fill:none;stroke-width:0.02px;stroke-linecap:butt;stroke-linejoin:miter;stroke:#e9232e;"/><path id="path204" d="M508.029,43.816l-0.229,0l0,-0.083l0.559,0l0,0.083l-0.231,0l0,0.672l-0.099,0l0,-0.672" style="fill:#e9232e;fill-rule:nonzero;"/><path id="path206" d="M508.029,43.816l-0.229,0l0,-0.083l0.559,0l0,0.083l-0.231,0l0,0.672l-0.099,0l0,-0.672Z" style="fill:none;stroke-width:0.02px;stroke-linecap:butt;stroke-linejoin:miter;stroke:#e9232e;"/><path id="path208" d="M509.08,44.157c-0.006,-0.105 -0.013,-0.233 -0.013,-0.326l-0.002,0c-0.027,0.087 -0.057,0.183 -0.095,0.287l-0.133,0.366l-0.074,0l-0.124,-0.359c-0.035,-0.108 -0.064,-0.204 -0.086,-0.294l-0.002,0c-0.002,0.094 -0.008,0.22 -0.015,0.334l-0.019,0.324l-0.094,0l0.053,-0.756l0.124,0l0.129,0.366c0.031,0.093 0.056,0.176 0.076,0.254l0.003,0c0.02,-0.076 0.046,-0.159 0.08,-0.254l0.135,-0.366l0.124,0l0.047,0.756l-0.096,0l-0.018,-0.332" style="fill:#e9232e;fill-rule:nonzero;"/><path id="path210" d="M509.08,44.157c-0.006,-0.105 -0.013,-0.233 -0.013,-0.326l-0.002,0c-0.027,0.087 -0.057,0.183 -0.095,0.287l-0.133,0.366l-0.074,0l-0.124,-0.359c-0.035,-0.108 -0.064,-0.204 -0.086,-0.294l-0.002,0c-0.002,0.094 -0.008,0.22 -0.015,0.334l-0.019,0.324l-0.094,0l0.053,-0.756l0.124,0l0.129,0.366c0.031,0.093 0.056,0.176 0.076,0.254l0.003,0c0.02,-0.076 0.046,-0.159 0.08,-0.254l0.135,-0.366l0.124,0l0.047,0.756l-0.096,0l-0.018,-0.332l0,0Z" style="fill:none;stroke-width:0.02px;stroke-linecap:butt;stroke-linejoin:miter;stroke:#e9232e;"/></g><g><path d="M0.915,169.717l87.372,0" style="fill:#1800ff;stroke-width:1px;stroke-linecap:butt;stroke-linejoin:miter;stroke:#1800ff;"/><path d="M98.198,169.641l-9.813,6.461l-0.098,-12.77l9.911,6.309Z" style="fill:#1800ff;fill-opacity:0.752941;"/><path d="M98.198,169.641l-9.813,6.461l-0.098,-12.77l9.911,6.309ZM89.371,174.255l6.987,-4.6l-7.057,-4.492l0.07,9.092Z" style="fill:#1800ff;"/></g><g><path d="M0.915,190.224l87.372,0" style="fill:#1800ff;stroke-width:1px;stroke-linecap:butt;stroke-linejoin:miter;stroke:#1800ff;"/><path d="M98.198,190.148l-9.813,6.461l-0.098,-12.77l9.911,6.309Z" style="fill:#1800ff;fill-opacity:0.752941;"/><path d="M98.198,190.148l-9.813,6.461l-0.098,-12.77l9.911,6.309ZM89.371,194.762l6.987,-4.6l-7.057,-4.492l0.07,9.092Z" style="fill:#1800ff;"/></g><g><path d="M0.866,212.269l87.372,0" style="fill:#1800ff;stroke-width:1px;stroke-linecap:butt;stroke-linejoin:miter;stroke:#1800ff;"/><path d="M98.15,212.194l-9.814,6.46l-0.098,-12.77l9.912,6.31Z" style="fill:#1800ff;fill-opacity:0.752941;"/><path d="M98.15,212.194l-9.814,6.46l-0.098,-12.77l9.912,6.31ZM89.322,216.808l6.988,-4.6l-7.058,-4.493l0.07,9.093Z" style="fill:#1800ff;"/></g><path d="M527.966,439.646l-10.863,-4.477l10.5,-7.267l0.363,11.744Z" style="fill:#1800ff;fill-opacity:0.752941;"/><path d="M527.966,439.646l-10.863,-4.477l10.5,-7.267l0.363,11.744ZM519.183,434.945l7.735,3.188l-0.258,-8.362l-7.477,5.174Z" style="fill:#1800ff;"/><path d="M235.719,191.16l-9.814,6.46l-0.098,-12.769l9.912,6.309Z" style="fill:#1800ff;fill-opacity:0.752941;"/><path d="M235.719,191.16l-9.814,6.46l-0.098,-12.769l9.912,6.309ZM226.891,195.774l6.988,-4.6l-7.058,-4.492l0.07,9.092Z" style="fill:#1800ff;"/><path d="M528.923,151.65l-7.874,8.721l-3.306,-12.334l11.18,3.613Z" style="fill:#1800ff;fill-opacity:0.752941;"/><path d="M528.923,151.65l-7.874,8.721l-3.306,-12.334l11.18,3.613ZM521.539,158.336l5.606,-6.209l-7.96,-2.573l2.354,8.782Z" style="fill:#1800ff;"/><path d="M527.673,251.218l-11.57,2.039l4.973,-11.761l6.597,9.722Z" style="fill:#1800ff;fill-opacity:0.752941;"/><path d="M527.673,251.218l-11.57,2.039l4.973,-11.761l6.597,9.722ZM517.74,251.953l8.239,-1.452l-4.698,-6.923l-3.541,8.375Z" style="fill:#1800ff;"/><path d="M528.127,57.862l-2.741,11.425l-8.805,-9.249l11.546,-2.176Z" style="fill:#1800ff;fill-opacity:0.752941;"/><path d="M525.386,69.287l-8.805,-9.249l11.546,-2.176l-2.741,11.425ZM518.573,60.68l6.27,6.585l1.951,-8.135l-8.221,1.55Z" style="fill:#1800ff;"/><path d="M749.597,187.169l-11.476,2.518l4.481,-11.958l6.995,9.44Z" style="fill:#1800ff;fill-opacity:0.752941;"/><path d="M749.597,187.169l-11.476,2.518l4.481,-11.958l6.995,9.44ZM739.702,188.316l8.172,-1.793l-4.981,-6.721l-3.191,8.514Z" style="fill:#1800ff;"/><path d="M749.224,194.928l-5.239,10.517l-6.501,-10.992l11.74,0.475Z" style="fill:#1800ff;fill-opacity:0.752941;"/><path d="M749.224,194.928l-5.239,10.517l-6.501,-10.992l11.74,0.475ZM743.91,203.353l3.73,-7.488l-8.359,-0.338l4.629,7.826Z" style="fill:#1800ff;"/><path d="M369.775,192.359l152.579,239.415" style="fill:none;stroke-width:1px;stroke-linecap:butt;stroke-linejoin:miter;stroke:#1800ff;"/><path d="M369.775,192.359l152.113,-128.785" style="fill:none;stroke-width:1px;stroke-linecap:butt;stroke-linejoin:miter;stroke:#1800ff;"/><path d="M517.743,154.204l-147.968,38.155" style="fill:none;stroke-width:1px;stroke-linecap:butt;stroke-linejoin:miter;stroke:#1800ff;"/><path d="M369.775,192.359l146.806,54.729" style="fill:none;stroke-width:1px;stroke-linecap:butt;stroke-linejoin:miter;stroke:#1800ff;"/><path d="M110.159,190.112l115.648,1.124" style="fill:none;stroke-width:1px;stroke-linecap:butt;stroke-linejoin:miter;stroke:#1800ff;"/><text x="12.336px" y="160.572px" style="font-family:'Helvetica-Light', 'Helvetica', sans-serif;font-weight:300;font-size:12px;fill:#000;">Requests</text><path d="M652.062,254.933l87.937,-54.984" style="fill:none;stroke-width:1px;stroke-linecap:butt;stroke-linejoin:miter;stroke:#1800ff;"/><path d="M652.062,144.812l88.625,38.896" style="fill:none;stroke-width:1px;stroke-linecap:butt;stroke-linejoin:miter;stroke:#1800ff;"/><defs><linearGradient id="_Linear1" x1="0" y1="0" x2="1" y2="0" gradientUnits="userSpaceOnUse" gradientTransform="matrix(12.9162,11.2199,-11.2199,12.9162,743.324,124.408)"><stop offset="0%" style="stop-color:#5a9fd4;stop-opacity:1"/><stop offset="100%" style="stop-color:#306998;stop-opacity:1"/></linearGradient><linearGradient id="_Linear2" x1="0" y1="0" x2="1" y2="0" gradientUnits="userSpaceOnUse" gradientTransform="matrix(-4.61237,-6.5887,6.5887,-4.61237,758.052,144.953)"><stop offset="0%" style="stop-color:#ffd43b;stop-opacity:1"/><stop offset="100%" style="stop-color:#ffe873;stop-opacity:1"/></linearGradient><radialGradient id="_Radial3" cx="0" cy="0" r="1" gradientUnits="userSpaceOnUse" gradientTransform="matrix(1.06965e-07,-1.46742,6.44993,2.31876e-06,755.079,151.304)"><stop offset="0%" style="stop-color:#b8b8b8;stop-opacity:0.22104"/><stop offset="100%" style="stop-color:#7f7f7f;stop-opacity:0"/></radialGradient><linearGradient id="_Linear4" x1="0" y1="0" x2="1" y2="0" gradientUnits="userSpaceOnUse" gradientTransform="matrix(-6.32878,-11.1738,11.1738,-6.32878,560.028,400.365)"><stop offset="0%" style="stop-color:#fb7655;stop-opacity:1"/><stop offset="0%" style="stop-color:#fb7655;stop-opacity:1"/><stop offset="41%" style="stop-color:#e42b1e;stop-opacity:1"/><stop offset="99%" style="stop-color:#900;stop-opacity:1"/><stop offset="100%" style="stop-color:#900;stop-opacity:1"/></linearGradient><linearGradient id="_Linear5" x1="0" y1="0" x2="1" y2="0" gradientUnits="userSpaceOnUse" gradientTransform="matrix(-8.15637,-5.47342,5.47342,-8.15637,563.181,390.978)"><stop offset="0%" style="stop-color:#871101;stop-opacity:1"/><stop offset="0%" style="stop-color:#871101;stop-opacity:1"/><stop offset="99%" style="stop-color:#911209;stop-opacity:1"/><stop offset="100%" style="stop-color:#911209;stop-opacity:1"/></linearGradient><linearGradient id="_Linear6" x1="0" y1="0" x2="1" y2="0" gradientUnits="userSpaceOnUse" gradientTransform="matrix(-8.15611,-5.47325,5.47325,-8.15611,556.655,400.703)"><stop offset="0%" style="stop-color:#871101;stop-opacity:1"/><stop offset="0%" style="stop-color:#871101;stop-opacity:1"/><stop offset="99%" style="stop-color:#911209;stop-opacity:1"/><stop offset="100%" style="stop-color:#911209;stop-opacity:1"/></linearGradient><linearGradient id="_Linear7" x1="0" y1="0" x2="1" y2="0" gradientUnits="userSpaceOnUse" gradientTransform="matrix(1.26441,8.21745,-8.21745,1.26441,539.53,387.016)"><stop offset="0%" style="stop-color:#fff;stop-opacity:1"/><stop offset="0%" style="stop-color:#fff;stop-opacity:1"/><stop offset="23%" style="stop-color:#e57252;stop-opacity:1"/><stop offset="46%" style="stop-color:#de3b20;stop-opacity:1"/><stop offset="99%" style="stop-color:#a60003;stop-opacity:1"/><stop offset="100%" style="stop-color:#a60003;stop-opacity:1"/></linearGradient><linearGradient id="_Linear8" x1="0" y1="0" x2="1" y2="0" gradientUnits="userSpaceOnUse" gradientTransform="matrix(0.465877,8.38643,-8.38643,0.465877,548.227,379.343)"><stop offset="0%" style="stop-color:#fff;stop-opacity:1"/><stop offset="0%" style="stop-color:#fff;stop-opacity:1"/><stop offset="23%" style="stop-color:#e4714e;stop-opacity:1"/><stop offset="56%" style="stop-color:#be1a0d;stop-opacity:1"/><stop offset="99%" style="stop-color:#a80d00;stop-opacity:1"/><stop offset="100%" style="stop-color:#a80d00;stop-opacity:1"/></linearGradient><linearGradient id="_Linear9" x1="0" y1="0" x2="1" y2="0" gradientUnits="userSpaceOnUse" gradientTransform="matrix(1.39471,6.01048,-6.01048,1.39471,555.944,371.591)"><stop offset="0%" style="stop-color:#fff;stop-opacity:1"/><stop offset="0%" style="stop-color:#fff;stop-opacity:1"/><stop offset="18%" style="stop-color:#e46342;stop-opacity:1"/><stop offset="40%" style="stop-color:#c82410;stop-opacity:1"/><stop offset="99%" style="stop-color:#a80d00;stop-opacity:1"/><stop offset="100%" style="stop-color:#a80d00;stop-opacity:1"/></linearGradient><linearGradient id="_Linear10" x1="0" y1="0" x2="1" y2="0" gradientUnits="userSpaceOnUse" gradientTransform="matrix(6.01007,-3.00504,3.00504,6.01007,551.685,369.475)"><stop offset="0%" style="stop-color:#fff;stop-opacity:1"/><stop offset="0%" style="stop-color:#fff;stop-opacity:1"/><stop offset="54%" style="stop-color:#c81f11;stop-opacity:1"/><stop offset="99%" style="stop-color:#bf0905;stop-opacity:1"/><stop offset="100%" style="stop-color:#bf0905;stop-opacity:1"/></linearGradient><linearGradient id="_Linear11" x1="0" y1="0" x2="1" y2="0" gradientUnits="userSpaceOnUse" gradientTransform="matrix(0.49466,4.95252,-4.95252,0.49466,534.262,384.921)"><stop offset="0%" style="stop-color:#fff;stop-opacity:1"/><stop offset="0%" style="stop-color:#fff;stop-opacity:1"/><stop offset="31%" style="stop-color:#de4024;stop-opacity:1"/><stop offset="99%" style="stop-color:#bf190b;stop-opacity:1"/><stop offset="100%" style="stop-color:#bf190b;stop-opacity:1"/></linearGradient><linearGradient id="_Linear12" x1="0" y1="0" x2="1" y2="0" gradientUnits="userSpaceOnUse" gradientTransform="matrix(23.2531,-23.9106,23.9106,23.2531,530.861,391.212)"><stop offset="0%" style="stop-color:#bd0012;stop-opacity:1"/><stop offset="0%" style="stop-color:#bd0012;stop-opacity:1"/><stop offset="7%" style="stop-color:#fff;stop-opacity:1"/><stop offset="17%" style="stop-color:#fff;stop-opacity:1"/><stop offset="27%" style="stop-color:#c82f1c;stop-opacity:1"/><stop offset="33%" style="stop-color:#820c01;stop-opacity:1"/><stop offset="46%" style="stop-color:#a31601;stop-opacity:1"/><stop offset="72%" style="stop-color:#b31301;stop-opacity:1"/><stop offset="99%" style="stop-color:#e82609;stop-opacity:1"/><stop offset="100%" style="stop-color:#e82609;stop-opacity:1"/></linearGradient><linearGradient id="_Linear13" x1="0" y1="0" x2="1" y2="0" gradientUnits="userSpaceOnUse" gradientTransform="matrix(-7.00404,-1.72865,1.72865,-7.00404,548.672,393.624)"><stop offset="0%" style="stop-color:#8c0c01;stop-opacity:1"/><stop offset="0%" style="stop-color:#8c0c01;stop-opacity:1"/><stop offset="54%" style="stop-color:#990c00;stop-opacity:1"/><stop offset="99%" style="stop-color:#a80d0e;stop-opacity:1"/><stop offset="100%" style="stop-color:#a80d0e;stop-opacity:1"/></linearGradient><linearGradient id="_Linear14" x1="0" y1="0" x2="1" y2="0" gradientUnits="userSpaceOnUse" gradientTransform="matrix(-6.22216,-5.57673,5.57673,-6.22216,560.702,385.218)"><stop offset="0%" style="stop-color:#7e110b;stop-opacity:1"/><stop offset="0%" style="stop-color:#7e110b;stop-opacity:1"/><stop offset="99%" style="stop-color:#9e0c00;stop-opacity:1"/><stop offset="100%" style="stop-color:#9e0c00;stop-opacity:1"/></linearGradient><linearGradient id="_Linear15" x1="0" y1="0" x2="1" y2="0" gradientUnits="userSpaceOnUse" gradientTransform="matrix(-3.09937,-3.31346,3.31346,-3.09937,562.988,374.985)"><stop offset="0%" style="stop-color:#79130d;stop-opacity:1"/><stop offset="0%" style="stop-color:#79130d;stop-opacity:1"/><stop offset="99%" style="stop-color:#9e120b;stop-opacity:1"/><stop offset="100%" style="stop-color:#9e120b;stop-opacity:1"/></linearGradient><radialGradient id="_Radial16" cx="0" cy="0" r="1" gradientUnits="userSpaceOnUse" gradientTransform="matrix(7.62493,0,0,7.62493,555.449,379.748)"><stop offset="0%" style="stop-color:#a80d00;stop-opacity:1"/><stop offset="0%" style="stop-color:#a80d00;stop-opacity:1"/><stop offset="99%" style="stop-color:#7e0e08;stop-opacity:1"/><stop offset="100%" style="stop-color:#7e0e08;stop-opacity:1"/></radialGradient><radialGradient id="_Radial17" cx="0" cy="0" r="1" gradientUnits="userSpaceOnUse" gradientTransform="matrix(10.1363,0,0,10.1363,544.889,389.796)"><stop offset="0%" style="stop-color:#a30c00;stop-opacity:1"/><stop offset="0%" style="stop-color:#a30c00;stop-opacity:1"/><stop offset="99%" style="stop-color:#800e08;stop-opacity:1"/><stop offset="100%" style="stop-color:#800e08;stop-opacity:1"/></radialGradient><linearGradient id="_Linear18" x1="0" y1="0" x2="1" y2="0" gradientUnits="userSpaceOnUse" gradientTransform="matrix(-2.5258,-8.56921,8.56921,-2.5258,537.709,397.607)"><stop offset="0%" style="stop-color:#8b2114;stop-opacity:1"/><stop offset="0%" style="stop-color:#8b2114;stop-opacity:1"/><stop offset="43%" style="stop-color:#9e100a;stop-opacity:1"/><stop offset="99%" style="stop-color:#b3100c;stop-opacity:1"/><stop offset="100%" style="stop-color:#b3100c;stop-opacity:1"/></linearGradient><linearGradient id="_Linear19" x1="0" y1="0" x2="1" y2="0" gradientUnits="userSpaceOnUse" gradientTransform="matrix(5.66263,2.49957,-2.49957,5.66263,557.086,369.211)"><stop offset="0%" style="stop-color:#b31000;stop-opacity:1"/><stop offset="0%" style="stop-color:#b31000;stop-opacity:1"/><stop offset="44%" style="stop-color:#910f08;stop-opacity:1"/><stop offset="99%" style="stop-color:#791c12;stop-opacity:1"/><stop offset="100%" style="stop-color:#791c12;stop-opacity:1"/></linearGradient><linearGradient id="_Linear20" x1="0" y1="0" x2="1" y2="0" gradientUnits="userSpaceOnUse" gradientTransform="matrix(12.9162,11.2199,-11.2199,12.9162,234.911,123.516)"><stop offset="0%" style="stop-color:#5a9fd4;stop-opacity:1"/><stop offset="100%" style="stop-color:#306998;stop-opacity:1"/></linearGradient><linearGradient id="_Linear21" x1="0" y1="0" x2="1" y2="0" gradientUnits="userSpaceOnUse" gradientTransform="matrix(-4.61237,-6.5887,6.5887,-4.61237,249.64,144.061)"><stop offset="0%" style="stop-color:#ffd43b;stop-opacity:1"/><stop offset="100%" style="stop-color:#ffe873;stop-opacity:1"/></linearGradient><radialGradient id="_Radial22" cx="0" cy="0" r="1" gradientUnits="userSpaceOnUse" gradientTransform="matrix(1.06965e-07,-1.46742,6.44993,2.31876e-06,246.667,150.412)"><stop offset="0%" style="stop-color:#b8b8b8;stop-opacity:0.22104"/><stop offset="100%" style="stop-color:#7f7f7f;stop-opacity:0"/></radialGradient></defs></svg>